%TF.GenerationSoftware,KiCad,Pcbnew,5.99.0-unknown-4efed4b~101~ubuntu18.04.1*%
%TF.CreationDate,2020-05-21T03:09:06+02:00*%
%TF.ProjectId,digitizer_fpga_10b_100MSPS,64696769-7469-47a6-9572-5f667067615f,1.0*%
%TF.SameCoordinates,Original*%
%TF.FileFunction,Paste,Bot*%
%TF.FilePolarity,Positive*%
%FSLAX46Y46*%
G04 Gerber Fmt 4.6, Leading zero omitted, Abs format (unit mm)*
G04 Created by KiCad (PCBNEW 5.99.0-unknown-4efed4b~101~ubuntu18.04.1) date 2020-05-21 03:09:06*
%MOMM*%
%LPD*%
G01*
G04 APERTURE LIST*
%ADD10C,2.000000*%
%ADD11R,1.350000X4.200000*%
G04 APERTURE END LIST*
D10*
%TO.C,FD8*%
X171000000Y-98000000D03*
%TD*%
%TO.C,FD7*%
X73000000Y-140000000D03*
%TD*%
%TO.C,R81*%
G36*
G01*
X148310000Y-111327500D02*
X148310000Y-111672500D01*
G75*
G02*
X148162500Y-111820000I-147500J0D01*
G01*
X147867500Y-111820000D01*
G75*
G02*
X147720000Y-111672500I0J147500D01*
G01*
X147720000Y-111327500D01*
G75*
G02*
X147867500Y-111180000I147500J0D01*
G01*
X148162500Y-111180000D01*
G75*
G02*
X148310000Y-111327500I0J-147500D01*
G01*
G37*
G36*
G01*
X149280000Y-111327500D02*
X149280000Y-111672500D01*
G75*
G02*
X149132500Y-111820000I-147500J0D01*
G01*
X148837500Y-111820000D01*
G75*
G02*
X148690000Y-111672500I0J147500D01*
G01*
X148690000Y-111327500D01*
G75*
G02*
X148837500Y-111180000I147500J0D01*
G01*
X149132500Y-111180000D01*
G75*
G02*
X149280000Y-111327500I0J-147500D01*
G01*
G37*
%TD*%
%TO.C,C94*%
G36*
G01*
X135190000Y-113172500D02*
X135190000Y-112827500D01*
G75*
G02*
X135337500Y-112680000I147500J0D01*
G01*
X135632500Y-112680000D01*
G75*
G02*
X135780000Y-112827500I0J-147500D01*
G01*
X135780000Y-113172500D01*
G75*
G02*
X135632500Y-113320000I-147500J0D01*
G01*
X135337500Y-113320000D01*
G75*
G02*
X135190000Y-113172500I0J147500D01*
G01*
G37*
G36*
G01*
X134220000Y-113172500D02*
X134220000Y-112827500D01*
G75*
G02*
X134367500Y-112680000I147500J0D01*
G01*
X134662500Y-112680000D01*
G75*
G02*
X134810000Y-112827500I0J-147500D01*
G01*
X134810000Y-113172500D01*
G75*
G02*
X134662500Y-113320000I-147500J0D01*
G01*
X134367500Y-113320000D01*
G75*
G02*
X134220000Y-113172500I0J147500D01*
G01*
G37*
%TD*%
%TO.C,C65*%
G36*
G01*
X104190000Y-110672500D02*
X104190000Y-110327500D01*
G75*
G02*
X104337500Y-110180000I147500J0D01*
G01*
X104632500Y-110180000D01*
G75*
G02*
X104780000Y-110327500I0J-147500D01*
G01*
X104780000Y-110672500D01*
G75*
G02*
X104632500Y-110820000I-147500J0D01*
G01*
X104337500Y-110820000D01*
G75*
G02*
X104190000Y-110672500I0J147500D01*
G01*
G37*
G36*
G01*
X103220000Y-110672500D02*
X103220000Y-110327500D01*
G75*
G02*
X103367500Y-110180000I147500J0D01*
G01*
X103662500Y-110180000D01*
G75*
G02*
X103810000Y-110327500I0J-147500D01*
G01*
X103810000Y-110672500D01*
G75*
G02*
X103662500Y-110820000I-147500J0D01*
G01*
X103367500Y-110820000D01*
G75*
G02*
X103220000Y-110672500I0J147500D01*
G01*
G37*
%TD*%
%TO.C,C64*%
G36*
G01*
X104190000Y-106672500D02*
X104190000Y-106327500D01*
G75*
G02*
X104337500Y-106180000I147500J0D01*
G01*
X104632500Y-106180000D01*
G75*
G02*
X104780000Y-106327500I0J-147500D01*
G01*
X104780000Y-106672500D01*
G75*
G02*
X104632500Y-106820000I-147500J0D01*
G01*
X104337500Y-106820000D01*
G75*
G02*
X104190000Y-106672500I0J147500D01*
G01*
G37*
G36*
G01*
X103220000Y-106672500D02*
X103220000Y-106327500D01*
G75*
G02*
X103367500Y-106180000I147500J0D01*
G01*
X103662500Y-106180000D01*
G75*
G02*
X103810000Y-106327500I0J-147500D01*
G01*
X103810000Y-106672500D01*
G75*
G02*
X103662500Y-106820000I-147500J0D01*
G01*
X103367500Y-106820000D01*
G75*
G02*
X103220000Y-106672500I0J147500D01*
G01*
G37*
%TD*%
%TO.C,C63*%
G36*
G01*
X104190000Y-109672500D02*
X104190000Y-109327500D01*
G75*
G02*
X104337500Y-109180000I147500J0D01*
G01*
X104632500Y-109180000D01*
G75*
G02*
X104780000Y-109327500I0J-147500D01*
G01*
X104780000Y-109672500D01*
G75*
G02*
X104632500Y-109820000I-147500J0D01*
G01*
X104337500Y-109820000D01*
G75*
G02*
X104190000Y-109672500I0J147500D01*
G01*
G37*
G36*
G01*
X103220000Y-109672500D02*
X103220000Y-109327500D01*
G75*
G02*
X103367500Y-109180000I147500J0D01*
G01*
X103662500Y-109180000D01*
G75*
G02*
X103810000Y-109327500I0J-147500D01*
G01*
X103810000Y-109672500D01*
G75*
G02*
X103662500Y-109820000I-147500J0D01*
G01*
X103367500Y-109820000D01*
G75*
G02*
X103220000Y-109672500I0J147500D01*
G01*
G37*
%TD*%
%TO.C,R87*%
G36*
G01*
X143810000Y-102827500D02*
X143810000Y-103172500D01*
G75*
G02*
X143662500Y-103320000I-147500J0D01*
G01*
X143367500Y-103320000D01*
G75*
G02*
X143220000Y-103172500I0J147500D01*
G01*
X143220000Y-102827500D01*
G75*
G02*
X143367500Y-102680000I147500J0D01*
G01*
X143662500Y-102680000D01*
G75*
G02*
X143810000Y-102827500I0J-147500D01*
G01*
G37*
G36*
G01*
X144780000Y-102827500D02*
X144780000Y-103172500D01*
G75*
G02*
X144632500Y-103320000I-147500J0D01*
G01*
X144337500Y-103320000D01*
G75*
G02*
X144190000Y-103172500I0J147500D01*
G01*
X144190000Y-102827500D01*
G75*
G02*
X144337500Y-102680000I147500J0D01*
G01*
X144632500Y-102680000D01*
G75*
G02*
X144780000Y-102827500I0J-147500D01*
G01*
G37*
%TD*%
%TO.C,R86*%
G36*
G01*
X143810000Y-101827500D02*
X143810000Y-102172500D01*
G75*
G02*
X143662500Y-102320000I-147500J0D01*
G01*
X143367500Y-102320000D01*
G75*
G02*
X143220000Y-102172500I0J147500D01*
G01*
X143220000Y-101827500D01*
G75*
G02*
X143367500Y-101680000I147500J0D01*
G01*
X143662500Y-101680000D01*
G75*
G02*
X143810000Y-101827500I0J-147500D01*
G01*
G37*
G36*
G01*
X144780000Y-101827500D02*
X144780000Y-102172500D01*
G75*
G02*
X144632500Y-102320000I-147500J0D01*
G01*
X144337500Y-102320000D01*
G75*
G02*
X144190000Y-102172500I0J147500D01*
G01*
X144190000Y-101827500D01*
G75*
G02*
X144337500Y-101680000I147500J0D01*
G01*
X144632500Y-101680000D01*
G75*
G02*
X144780000Y-101827500I0J-147500D01*
G01*
G37*
%TD*%
%TO.C,R85*%
G36*
G01*
X148310000Y-106327500D02*
X148310000Y-106672500D01*
G75*
G02*
X148162500Y-106820000I-147500J0D01*
G01*
X147867500Y-106820000D01*
G75*
G02*
X147720000Y-106672500I0J147500D01*
G01*
X147720000Y-106327500D01*
G75*
G02*
X147867500Y-106180000I147500J0D01*
G01*
X148162500Y-106180000D01*
G75*
G02*
X148310000Y-106327500I0J-147500D01*
G01*
G37*
G36*
G01*
X149280000Y-106327500D02*
X149280000Y-106672500D01*
G75*
G02*
X149132500Y-106820000I-147500J0D01*
G01*
X148837500Y-106820000D01*
G75*
G02*
X148690000Y-106672500I0J147500D01*
G01*
X148690000Y-106327500D01*
G75*
G02*
X148837500Y-106180000I147500J0D01*
G01*
X149132500Y-106180000D01*
G75*
G02*
X149280000Y-106327500I0J-147500D01*
G01*
G37*
%TD*%
%TO.C,R84*%
G36*
G01*
X148310000Y-107327500D02*
X148310000Y-107672500D01*
G75*
G02*
X148162500Y-107820000I-147500J0D01*
G01*
X147867500Y-107820000D01*
G75*
G02*
X147720000Y-107672500I0J147500D01*
G01*
X147720000Y-107327500D01*
G75*
G02*
X147867500Y-107180000I147500J0D01*
G01*
X148162500Y-107180000D01*
G75*
G02*
X148310000Y-107327500I0J-147500D01*
G01*
G37*
G36*
G01*
X149280000Y-107327500D02*
X149280000Y-107672500D01*
G75*
G02*
X149132500Y-107820000I-147500J0D01*
G01*
X148837500Y-107820000D01*
G75*
G02*
X148690000Y-107672500I0J147500D01*
G01*
X148690000Y-107327500D01*
G75*
G02*
X148837500Y-107180000I147500J0D01*
G01*
X149132500Y-107180000D01*
G75*
G02*
X149280000Y-107327500I0J-147500D01*
G01*
G37*
%TD*%
%TO.C,R83*%
G36*
G01*
X148310000Y-109327500D02*
X148310000Y-109672500D01*
G75*
G02*
X148162500Y-109820000I-147500J0D01*
G01*
X147867500Y-109820000D01*
G75*
G02*
X147720000Y-109672500I0J147500D01*
G01*
X147720000Y-109327500D01*
G75*
G02*
X147867500Y-109180000I147500J0D01*
G01*
X148162500Y-109180000D01*
G75*
G02*
X148310000Y-109327500I0J-147500D01*
G01*
G37*
G36*
G01*
X149280000Y-109327500D02*
X149280000Y-109672500D01*
G75*
G02*
X149132500Y-109820000I-147500J0D01*
G01*
X148837500Y-109820000D01*
G75*
G02*
X148690000Y-109672500I0J147500D01*
G01*
X148690000Y-109327500D01*
G75*
G02*
X148837500Y-109180000I147500J0D01*
G01*
X149132500Y-109180000D01*
G75*
G02*
X149280000Y-109327500I0J-147500D01*
G01*
G37*
%TD*%
%TO.C,R82*%
G36*
G01*
X148310000Y-110327500D02*
X148310000Y-110672500D01*
G75*
G02*
X148162500Y-110820000I-147500J0D01*
G01*
X147867500Y-110820000D01*
G75*
G02*
X147720000Y-110672500I0J147500D01*
G01*
X147720000Y-110327500D01*
G75*
G02*
X147867500Y-110180000I147500J0D01*
G01*
X148162500Y-110180000D01*
G75*
G02*
X148310000Y-110327500I0J-147500D01*
G01*
G37*
G36*
G01*
X149280000Y-110327500D02*
X149280000Y-110672500D01*
G75*
G02*
X149132500Y-110820000I-147500J0D01*
G01*
X148837500Y-110820000D01*
G75*
G02*
X148690000Y-110672500I0J147500D01*
G01*
X148690000Y-110327500D01*
G75*
G02*
X148837500Y-110180000I147500J0D01*
G01*
X149132500Y-110180000D01*
G75*
G02*
X149280000Y-110327500I0J-147500D01*
G01*
G37*
%TD*%
%TO.C,R80*%
G36*
G01*
X148310000Y-112327500D02*
X148310000Y-112672500D01*
G75*
G02*
X148162500Y-112820000I-147500J0D01*
G01*
X147867500Y-112820000D01*
G75*
G02*
X147720000Y-112672500I0J147500D01*
G01*
X147720000Y-112327500D01*
G75*
G02*
X147867500Y-112180000I147500J0D01*
G01*
X148162500Y-112180000D01*
G75*
G02*
X148310000Y-112327500I0J-147500D01*
G01*
G37*
G36*
G01*
X149280000Y-112327500D02*
X149280000Y-112672500D01*
G75*
G02*
X149132500Y-112820000I-147500J0D01*
G01*
X148837500Y-112820000D01*
G75*
G02*
X148690000Y-112672500I0J147500D01*
G01*
X148690000Y-112327500D01*
G75*
G02*
X148837500Y-112180000I147500J0D01*
G01*
X149132500Y-112180000D01*
G75*
G02*
X149280000Y-112327500I0J-147500D01*
G01*
G37*
%TD*%
%TO.C,R79*%
G36*
G01*
X148310000Y-115327500D02*
X148310000Y-115672500D01*
G75*
G02*
X148162500Y-115820000I-147500J0D01*
G01*
X147867500Y-115820000D01*
G75*
G02*
X147720000Y-115672500I0J147500D01*
G01*
X147720000Y-115327500D01*
G75*
G02*
X147867500Y-115180000I147500J0D01*
G01*
X148162500Y-115180000D01*
G75*
G02*
X148310000Y-115327500I0J-147500D01*
G01*
G37*
G36*
G01*
X149280000Y-115327500D02*
X149280000Y-115672500D01*
G75*
G02*
X149132500Y-115820000I-147500J0D01*
G01*
X148837500Y-115820000D01*
G75*
G02*
X148690000Y-115672500I0J147500D01*
G01*
X148690000Y-115327500D01*
G75*
G02*
X148837500Y-115180000I147500J0D01*
G01*
X149132500Y-115180000D01*
G75*
G02*
X149280000Y-115327500I0J-147500D01*
G01*
G37*
%TD*%
%TO.C,R78*%
G36*
G01*
X148310000Y-116327500D02*
X148310000Y-116672500D01*
G75*
G02*
X148162500Y-116820000I-147500J0D01*
G01*
X147867500Y-116820000D01*
G75*
G02*
X147720000Y-116672500I0J147500D01*
G01*
X147720000Y-116327500D01*
G75*
G02*
X147867500Y-116180000I147500J0D01*
G01*
X148162500Y-116180000D01*
G75*
G02*
X148310000Y-116327500I0J-147500D01*
G01*
G37*
G36*
G01*
X149280000Y-116327500D02*
X149280000Y-116672500D01*
G75*
G02*
X149132500Y-116820000I-147500J0D01*
G01*
X148837500Y-116820000D01*
G75*
G02*
X148690000Y-116672500I0J147500D01*
G01*
X148690000Y-116327500D01*
G75*
G02*
X148837500Y-116180000I147500J0D01*
G01*
X149132500Y-116180000D01*
G75*
G02*
X149280000Y-116327500I0J-147500D01*
G01*
G37*
%TD*%
%TO.C,R77*%
G36*
G01*
X148310000Y-117327500D02*
X148310000Y-117672500D01*
G75*
G02*
X148162500Y-117820000I-147500J0D01*
G01*
X147867500Y-117820000D01*
G75*
G02*
X147720000Y-117672500I0J147500D01*
G01*
X147720000Y-117327500D01*
G75*
G02*
X147867500Y-117180000I147500J0D01*
G01*
X148162500Y-117180000D01*
G75*
G02*
X148310000Y-117327500I0J-147500D01*
G01*
G37*
G36*
G01*
X149280000Y-117327500D02*
X149280000Y-117672500D01*
G75*
G02*
X149132500Y-117820000I-147500J0D01*
G01*
X148837500Y-117820000D01*
G75*
G02*
X148690000Y-117672500I0J147500D01*
G01*
X148690000Y-117327500D01*
G75*
G02*
X148837500Y-117180000I147500J0D01*
G01*
X149132500Y-117180000D01*
G75*
G02*
X149280000Y-117327500I0J-147500D01*
G01*
G37*
%TD*%
%TO.C,R76*%
G36*
G01*
X148310000Y-122327500D02*
X148310000Y-122672500D01*
G75*
G02*
X148162500Y-122820000I-147500J0D01*
G01*
X147867500Y-122820000D01*
G75*
G02*
X147720000Y-122672500I0J147500D01*
G01*
X147720000Y-122327500D01*
G75*
G02*
X147867500Y-122180000I147500J0D01*
G01*
X148162500Y-122180000D01*
G75*
G02*
X148310000Y-122327500I0J-147500D01*
G01*
G37*
G36*
G01*
X149280000Y-122327500D02*
X149280000Y-122672500D01*
G75*
G02*
X149132500Y-122820000I-147500J0D01*
G01*
X148837500Y-122820000D01*
G75*
G02*
X148690000Y-122672500I0J147500D01*
G01*
X148690000Y-122327500D01*
G75*
G02*
X148837500Y-122180000I147500J0D01*
G01*
X149132500Y-122180000D01*
G75*
G02*
X149280000Y-122327500I0J-147500D01*
G01*
G37*
%TD*%
%TO.C,R75*%
G36*
G01*
X148310000Y-121327500D02*
X148310000Y-121672500D01*
G75*
G02*
X148162500Y-121820000I-147500J0D01*
G01*
X147867500Y-121820000D01*
G75*
G02*
X147720000Y-121672500I0J147500D01*
G01*
X147720000Y-121327500D01*
G75*
G02*
X147867500Y-121180000I147500J0D01*
G01*
X148162500Y-121180000D01*
G75*
G02*
X148310000Y-121327500I0J-147500D01*
G01*
G37*
G36*
G01*
X149280000Y-121327500D02*
X149280000Y-121672500D01*
G75*
G02*
X149132500Y-121820000I-147500J0D01*
G01*
X148837500Y-121820000D01*
G75*
G02*
X148690000Y-121672500I0J147500D01*
G01*
X148690000Y-121327500D01*
G75*
G02*
X148837500Y-121180000I147500J0D01*
G01*
X149132500Y-121180000D01*
G75*
G02*
X149280000Y-121327500I0J-147500D01*
G01*
G37*
%TD*%
%TO.C,R74*%
G36*
G01*
X148310000Y-120327500D02*
X148310000Y-120672500D01*
G75*
G02*
X148162500Y-120820000I-147500J0D01*
G01*
X147867500Y-120820000D01*
G75*
G02*
X147720000Y-120672500I0J147500D01*
G01*
X147720000Y-120327500D01*
G75*
G02*
X147867500Y-120180000I147500J0D01*
G01*
X148162500Y-120180000D01*
G75*
G02*
X148310000Y-120327500I0J-147500D01*
G01*
G37*
G36*
G01*
X149280000Y-120327500D02*
X149280000Y-120672500D01*
G75*
G02*
X149132500Y-120820000I-147500J0D01*
G01*
X148837500Y-120820000D01*
G75*
G02*
X148690000Y-120672500I0J147500D01*
G01*
X148690000Y-120327500D01*
G75*
G02*
X148837500Y-120180000I147500J0D01*
G01*
X149132500Y-120180000D01*
G75*
G02*
X149280000Y-120327500I0J-147500D01*
G01*
G37*
%TD*%
%TO.C,R73*%
G36*
G01*
X148310000Y-119327500D02*
X148310000Y-119672500D01*
G75*
G02*
X148162500Y-119820000I-147500J0D01*
G01*
X147867500Y-119820000D01*
G75*
G02*
X147720000Y-119672500I0J147500D01*
G01*
X147720000Y-119327500D01*
G75*
G02*
X147867500Y-119180000I147500J0D01*
G01*
X148162500Y-119180000D01*
G75*
G02*
X148310000Y-119327500I0J-147500D01*
G01*
G37*
G36*
G01*
X149280000Y-119327500D02*
X149280000Y-119672500D01*
G75*
G02*
X149132500Y-119820000I-147500J0D01*
G01*
X148837500Y-119820000D01*
G75*
G02*
X148690000Y-119672500I0J147500D01*
G01*
X148690000Y-119327500D01*
G75*
G02*
X148837500Y-119180000I147500J0D01*
G01*
X149132500Y-119180000D01*
G75*
G02*
X149280000Y-119327500I0J-147500D01*
G01*
G37*
%TD*%
%TO.C,R69*%
G36*
G01*
X148690000Y-114672500D02*
X148690000Y-114327500D01*
G75*
G02*
X148837500Y-114180000I147500J0D01*
G01*
X149132500Y-114180000D01*
G75*
G02*
X149280000Y-114327500I0J-147500D01*
G01*
X149280000Y-114672500D01*
G75*
G02*
X149132500Y-114820000I-147500J0D01*
G01*
X148837500Y-114820000D01*
G75*
G02*
X148690000Y-114672500I0J147500D01*
G01*
G37*
G36*
G01*
X147720000Y-114672500D02*
X147720000Y-114327500D01*
G75*
G02*
X147867500Y-114180000I147500J0D01*
G01*
X148162500Y-114180000D01*
G75*
G02*
X148310000Y-114327500I0J-147500D01*
G01*
X148310000Y-114672500D01*
G75*
G02*
X148162500Y-114820000I-147500J0D01*
G01*
X147867500Y-114820000D01*
G75*
G02*
X147720000Y-114672500I0J147500D01*
G01*
G37*
%TD*%
%TO.C,R66*%
G36*
G01*
X148690000Y-113672500D02*
X148690000Y-113327500D01*
G75*
G02*
X148837500Y-113180000I147500J0D01*
G01*
X149132500Y-113180000D01*
G75*
G02*
X149280000Y-113327500I0J-147500D01*
G01*
X149280000Y-113672500D01*
G75*
G02*
X149132500Y-113820000I-147500J0D01*
G01*
X148837500Y-113820000D01*
G75*
G02*
X148690000Y-113672500I0J147500D01*
G01*
G37*
G36*
G01*
X147720000Y-113672500D02*
X147720000Y-113327500D01*
G75*
G02*
X147867500Y-113180000I147500J0D01*
G01*
X148162500Y-113180000D01*
G75*
G02*
X148310000Y-113327500I0J-147500D01*
G01*
X148310000Y-113672500D01*
G75*
G02*
X148162500Y-113820000I-147500J0D01*
G01*
X147867500Y-113820000D01*
G75*
G02*
X147720000Y-113672500I0J147500D01*
G01*
G37*
%TD*%
D11*
%TO.C,J5*%
X102825000Y-147500000D03*
X97175000Y-147500000D03*
%TD*%
%TO.C,C107*%
G36*
G01*
X140190000Y-114172500D02*
X140190000Y-113827500D01*
G75*
G02*
X140337500Y-113680000I147500J0D01*
G01*
X140632500Y-113680000D01*
G75*
G02*
X140780000Y-113827500I0J-147500D01*
G01*
X140780000Y-114172500D01*
G75*
G02*
X140632500Y-114320000I-147500J0D01*
G01*
X140337500Y-114320000D01*
G75*
G02*
X140190000Y-114172500I0J147500D01*
G01*
G37*
G36*
G01*
X139220000Y-114172500D02*
X139220000Y-113827500D01*
G75*
G02*
X139367500Y-113680000I147500J0D01*
G01*
X139662500Y-113680000D01*
G75*
G02*
X139810000Y-113827500I0J-147500D01*
G01*
X139810000Y-114172500D01*
G75*
G02*
X139662500Y-114320000I-147500J0D01*
G01*
X139367500Y-114320000D01*
G75*
G02*
X139220000Y-114172500I0J147500D01*
G01*
G37*
%TD*%
%TO.C,C106*%
G36*
G01*
X139810000Y-109827500D02*
X139810000Y-110172500D01*
G75*
G02*
X139662500Y-110320000I-147500J0D01*
G01*
X139367500Y-110320000D01*
G75*
G02*
X139220000Y-110172500I0J147500D01*
G01*
X139220000Y-109827500D01*
G75*
G02*
X139367500Y-109680000I147500J0D01*
G01*
X139662500Y-109680000D01*
G75*
G02*
X139810000Y-109827500I0J-147500D01*
G01*
G37*
G36*
G01*
X140780000Y-109827500D02*
X140780000Y-110172500D01*
G75*
G02*
X140632500Y-110320000I-147500J0D01*
G01*
X140337500Y-110320000D01*
G75*
G02*
X140190000Y-110172500I0J147500D01*
G01*
X140190000Y-109827500D01*
G75*
G02*
X140337500Y-109680000I147500J0D01*
G01*
X140632500Y-109680000D01*
G75*
G02*
X140780000Y-109827500I0J-147500D01*
G01*
G37*
%TD*%
%TO.C,C105*%
G36*
G01*
X135810000Y-105827500D02*
X135810000Y-106172500D01*
G75*
G02*
X135662500Y-106320000I-147500J0D01*
G01*
X135367500Y-106320000D01*
G75*
G02*
X135220000Y-106172500I0J147500D01*
G01*
X135220000Y-105827500D01*
G75*
G02*
X135367500Y-105680000I147500J0D01*
G01*
X135662500Y-105680000D01*
G75*
G02*
X135810000Y-105827500I0J-147500D01*
G01*
G37*
G36*
G01*
X136780000Y-105827500D02*
X136780000Y-106172500D01*
G75*
G02*
X136632500Y-106320000I-147500J0D01*
G01*
X136337500Y-106320000D01*
G75*
G02*
X136190000Y-106172500I0J147500D01*
G01*
X136190000Y-105827500D01*
G75*
G02*
X136337500Y-105680000I147500J0D01*
G01*
X136632500Y-105680000D01*
G75*
G02*
X136780000Y-105827500I0J-147500D01*
G01*
G37*
%TD*%
%TO.C,C104*%
G36*
G01*
X132190000Y-113172500D02*
X132190000Y-112827500D01*
G75*
G02*
X132337500Y-112680000I147500J0D01*
G01*
X132632500Y-112680000D01*
G75*
G02*
X132780000Y-112827500I0J-147500D01*
G01*
X132780000Y-113172500D01*
G75*
G02*
X132632500Y-113320000I-147500J0D01*
G01*
X132337500Y-113320000D01*
G75*
G02*
X132190000Y-113172500I0J147500D01*
G01*
G37*
G36*
G01*
X131220000Y-113172500D02*
X131220000Y-112827500D01*
G75*
G02*
X131367500Y-112680000I147500J0D01*
G01*
X131662500Y-112680000D01*
G75*
G02*
X131810000Y-112827500I0J-147500D01*
G01*
X131810000Y-113172500D01*
G75*
G02*
X131662500Y-113320000I-147500J0D01*
G01*
X131367500Y-113320000D01*
G75*
G02*
X131220000Y-113172500I0J147500D01*
G01*
G37*
%TD*%
%TO.C,C103*%
G36*
G01*
X143810000Y-105827500D02*
X143810000Y-106172500D01*
G75*
G02*
X143662500Y-106320000I-147500J0D01*
G01*
X143367500Y-106320000D01*
G75*
G02*
X143220000Y-106172500I0J147500D01*
G01*
X143220000Y-105827500D01*
G75*
G02*
X143367500Y-105680000I147500J0D01*
G01*
X143662500Y-105680000D01*
G75*
G02*
X143810000Y-105827500I0J-147500D01*
G01*
G37*
G36*
G01*
X144780000Y-105827500D02*
X144780000Y-106172500D01*
G75*
G02*
X144632500Y-106320000I-147500J0D01*
G01*
X144337500Y-106320000D01*
G75*
G02*
X144190000Y-106172500I0J147500D01*
G01*
X144190000Y-105827500D01*
G75*
G02*
X144337500Y-105680000I147500J0D01*
G01*
X144632500Y-105680000D01*
G75*
G02*
X144780000Y-105827500I0J-147500D01*
G01*
G37*
%TD*%
%TO.C,C102*%
G36*
G01*
X137190000Y-115172500D02*
X137190000Y-114827500D01*
G75*
G02*
X137337500Y-114680000I147500J0D01*
G01*
X137632500Y-114680000D01*
G75*
G02*
X137780000Y-114827500I0J-147500D01*
G01*
X137780000Y-115172500D01*
G75*
G02*
X137632500Y-115320000I-147500J0D01*
G01*
X137337500Y-115320000D01*
G75*
G02*
X137190000Y-115172500I0J147500D01*
G01*
G37*
G36*
G01*
X136220000Y-115172500D02*
X136220000Y-114827500D01*
G75*
G02*
X136367500Y-114680000I147500J0D01*
G01*
X136662500Y-114680000D01*
G75*
G02*
X136810000Y-114827500I0J-147500D01*
G01*
X136810000Y-115172500D01*
G75*
G02*
X136662500Y-115320000I-147500J0D01*
G01*
X136367500Y-115320000D01*
G75*
G02*
X136220000Y-115172500I0J147500D01*
G01*
G37*
%TD*%
%TO.C,C101*%
G36*
G01*
X141190000Y-106172500D02*
X141190000Y-105827500D01*
G75*
G02*
X141337500Y-105680000I147500J0D01*
G01*
X141632500Y-105680000D01*
G75*
G02*
X141780000Y-105827500I0J-147500D01*
G01*
X141780000Y-106172500D01*
G75*
G02*
X141632500Y-106320000I-147500J0D01*
G01*
X141337500Y-106320000D01*
G75*
G02*
X141190000Y-106172500I0J147500D01*
G01*
G37*
G36*
G01*
X140220000Y-106172500D02*
X140220000Y-105827500D01*
G75*
G02*
X140367500Y-105680000I147500J0D01*
G01*
X140662500Y-105680000D01*
G75*
G02*
X140810000Y-105827500I0J-147500D01*
G01*
X140810000Y-106172500D01*
G75*
G02*
X140662500Y-106320000I-147500J0D01*
G01*
X140367500Y-106320000D01*
G75*
G02*
X140220000Y-106172500I0J147500D01*
G01*
G37*
%TD*%
%TO.C,C100*%
G36*
G01*
X132190000Y-109172500D02*
X132190000Y-108827500D01*
G75*
G02*
X132337500Y-108680000I147500J0D01*
G01*
X132632500Y-108680000D01*
G75*
G02*
X132780000Y-108827500I0J-147500D01*
G01*
X132780000Y-109172500D01*
G75*
G02*
X132632500Y-109320000I-147500J0D01*
G01*
X132337500Y-109320000D01*
G75*
G02*
X132190000Y-109172500I0J147500D01*
G01*
G37*
G36*
G01*
X131220000Y-109172500D02*
X131220000Y-108827500D01*
G75*
G02*
X131367500Y-108680000I147500J0D01*
G01*
X131662500Y-108680000D01*
G75*
G02*
X131810000Y-108827500I0J-147500D01*
G01*
X131810000Y-109172500D01*
G75*
G02*
X131662500Y-109320000I-147500J0D01*
G01*
X131367500Y-109320000D01*
G75*
G02*
X131220000Y-109172500I0J147500D01*
G01*
G37*
%TD*%
%TO.C,C99*%
G36*
G01*
X143810000Y-106827500D02*
X143810000Y-107172500D01*
G75*
G02*
X143662500Y-107320000I-147500J0D01*
G01*
X143367500Y-107320000D01*
G75*
G02*
X143220000Y-107172500I0J147500D01*
G01*
X143220000Y-106827500D01*
G75*
G02*
X143367500Y-106680000I147500J0D01*
G01*
X143662500Y-106680000D01*
G75*
G02*
X143810000Y-106827500I0J-147500D01*
G01*
G37*
G36*
G01*
X144780000Y-106827500D02*
X144780000Y-107172500D01*
G75*
G02*
X144632500Y-107320000I-147500J0D01*
G01*
X144337500Y-107320000D01*
G75*
G02*
X144190000Y-107172500I0J147500D01*
G01*
X144190000Y-106827500D01*
G75*
G02*
X144337500Y-106680000I147500J0D01*
G01*
X144632500Y-106680000D01*
G75*
G02*
X144780000Y-106827500I0J-147500D01*
G01*
G37*
%TD*%
%TO.C,C98*%
G36*
G01*
X137190000Y-109172500D02*
X137190000Y-108827500D01*
G75*
G02*
X137337500Y-108680000I147500J0D01*
G01*
X137632500Y-108680000D01*
G75*
G02*
X137780000Y-108827500I0J-147500D01*
G01*
X137780000Y-109172500D01*
G75*
G02*
X137632500Y-109320000I-147500J0D01*
G01*
X137337500Y-109320000D01*
G75*
G02*
X137190000Y-109172500I0J147500D01*
G01*
G37*
G36*
G01*
X136220000Y-109172500D02*
X136220000Y-108827500D01*
G75*
G02*
X136367500Y-108680000I147500J0D01*
G01*
X136662500Y-108680000D01*
G75*
G02*
X136810000Y-108827500I0J-147500D01*
G01*
X136810000Y-109172500D01*
G75*
G02*
X136662500Y-109320000I-147500J0D01*
G01*
X136367500Y-109320000D01*
G75*
G02*
X136220000Y-109172500I0J147500D01*
G01*
G37*
%TD*%
%TO.C,C97*%
G36*
G01*
X135810000Y-106827500D02*
X135810000Y-107172500D01*
G75*
G02*
X135662500Y-107320000I-147500J0D01*
G01*
X135367500Y-107320000D01*
G75*
G02*
X135220000Y-107172500I0J147500D01*
G01*
X135220000Y-106827500D01*
G75*
G02*
X135367500Y-106680000I147500J0D01*
G01*
X135662500Y-106680000D01*
G75*
G02*
X135810000Y-106827500I0J-147500D01*
G01*
G37*
G36*
G01*
X136780000Y-106827500D02*
X136780000Y-107172500D01*
G75*
G02*
X136632500Y-107320000I-147500J0D01*
G01*
X136337500Y-107320000D01*
G75*
G02*
X136190000Y-107172500I0J147500D01*
G01*
X136190000Y-106827500D01*
G75*
G02*
X136337500Y-106680000I147500J0D01*
G01*
X136632500Y-106680000D01*
G75*
G02*
X136780000Y-106827500I0J-147500D01*
G01*
G37*
%TD*%
%TO.C,C96*%
G36*
G01*
X132190000Y-107172500D02*
X132190000Y-106827500D01*
G75*
G02*
X132337500Y-106680000I147500J0D01*
G01*
X132632500Y-106680000D01*
G75*
G02*
X132780000Y-106827500I0J-147500D01*
G01*
X132780000Y-107172500D01*
G75*
G02*
X132632500Y-107320000I-147500J0D01*
G01*
X132337500Y-107320000D01*
G75*
G02*
X132190000Y-107172500I0J147500D01*
G01*
G37*
G36*
G01*
X131220000Y-107172500D02*
X131220000Y-106827500D01*
G75*
G02*
X131367500Y-106680000I147500J0D01*
G01*
X131662500Y-106680000D01*
G75*
G02*
X131810000Y-106827500I0J-147500D01*
G01*
X131810000Y-107172500D01*
G75*
G02*
X131662500Y-107320000I-147500J0D01*
G01*
X131367500Y-107320000D01*
G75*
G02*
X131220000Y-107172500I0J147500D01*
G01*
G37*
%TD*%
%TO.C,C95*%
G36*
G01*
X143810000Y-112827500D02*
X143810000Y-113172500D01*
G75*
G02*
X143662500Y-113320000I-147500J0D01*
G01*
X143367500Y-113320000D01*
G75*
G02*
X143220000Y-113172500I0J147500D01*
G01*
X143220000Y-112827500D01*
G75*
G02*
X143367500Y-112680000I147500J0D01*
G01*
X143662500Y-112680000D01*
G75*
G02*
X143810000Y-112827500I0J-147500D01*
G01*
G37*
G36*
G01*
X144780000Y-112827500D02*
X144780000Y-113172500D01*
G75*
G02*
X144632500Y-113320000I-147500J0D01*
G01*
X144337500Y-113320000D01*
G75*
G02*
X144190000Y-113172500I0J147500D01*
G01*
X144190000Y-112827500D01*
G75*
G02*
X144337500Y-112680000I147500J0D01*
G01*
X144632500Y-112680000D01*
G75*
G02*
X144780000Y-112827500I0J-147500D01*
G01*
G37*
%TD*%
%TO.C,C93*%
G36*
G01*
X139810000Y-112827500D02*
X139810000Y-113172500D01*
G75*
G02*
X139662500Y-113320000I-147500J0D01*
G01*
X139367500Y-113320000D01*
G75*
G02*
X139220000Y-113172500I0J147500D01*
G01*
X139220000Y-112827500D01*
G75*
G02*
X139367500Y-112680000I147500J0D01*
G01*
X139662500Y-112680000D01*
G75*
G02*
X139810000Y-112827500I0J-147500D01*
G01*
G37*
G36*
G01*
X140780000Y-112827500D02*
X140780000Y-113172500D01*
G75*
G02*
X140632500Y-113320000I-147500J0D01*
G01*
X140337500Y-113320000D01*
G75*
G02*
X140190000Y-113172500I0J147500D01*
G01*
X140190000Y-112827500D01*
G75*
G02*
X140337500Y-112680000I147500J0D01*
G01*
X140632500Y-112680000D01*
G75*
G02*
X140780000Y-112827500I0J-147500D01*
G01*
G37*
%TD*%
%TO.C,C92*%
G36*
G01*
X141190000Y-107172500D02*
X141190000Y-106827500D01*
G75*
G02*
X141337500Y-106680000I147500J0D01*
G01*
X141632500Y-106680000D01*
G75*
G02*
X141780000Y-106827500I0J-147500D01*
G01*
X141780000Y-107172500D01*
G75*
G02*
X141632500Y-107320000I-147500J0D01*
G01*
X141337500Y-107320000D01*
G75*
G02*
X141190000Y-107172500I0J147500D01*
G01*
G37*
G36*
G01*
X140220000Y-107172500D02*
X140220000Y-106827500D01*
G75*
G02*
X140367500Y-106680000I147500J0D01*
G01*
X140662500Y-106680000D01*
G75*
G02*
X140810000Y-106827500I0J-147500D01*
G01*
X140810000Y-107172500D01*
G75*
G02*
X140662500Y-107320000I-147500J0D01*
G01*
X140367500Y-107320000D01*
G75*
G02*
X140220000Y-107172500I0J147500D01*
G01*
G37*
%TD*%
%TO.C,C91*%
G36*
G01*
X132190000Y-106172500D02*
X132190000Y-105827500D01*
G75*
G02*
X132337500Y-105680000I147500J0D01*
G01*
X132632500Y-105680000D01*
G75*
G02*
X132780000Y-105827500I0J-147500D01*
G01*
X132780000Y-106172500D01*
G75*
G02*
X132632500Y-106320000I-147500J0D01*
G01*
X132337500Y-106320000D01*
G75*
G02*
X132190000Y-106172500I0J147500D01*
G01*
G37*
G36*
G01*
X131220000Y-106172500D02*
X131220000Y-105827500D01*
G75*
G02*
X131367500Y-105680000I147500J0D01*
G01*
X131662500Y-105680000D01*
G75*
G02*
X131810000Y-105827500I0J-147500D01*
G01*
X131810000Y-106172500D01*
G75*
G02*
X131662500Y-106320000I-147500J0D01*
G01*
X131367500Y-106320000D01*
G75*
G02*
X131220000Y-106172500I0J147500D01*
G01*
G37*
%TD*%
%TO.C,C90*%
G36*
G01*
X143810000Y-108827500D02*
X143810000Y-109172500D01*
G75*
G02*
X143662500Y-109320000I-147500J0D01*
G01*
X143367500Y-109320000D01*
G75*
G02*
X143220000Y-109172500I0J147500D01*
G01*
X143220000Y-108827500D01*
G75*
G02*
X143367500Y-108680000I147500J0D01*
G01*
X143662500Y-108680000D01*
G75*
G02*
X143810000Y-108827500I0J-147500D01*
G01*
G37*
G36*
G01*
X144780000Y-108827500D02*
X144780000Y-109172500D01*
G75*
G02*
X144632500Y-109320000I-147500J0D01*
G01*
X144337500Y-109320000D01*
G75*
G02*
X144190000Y-109172500I0J147500D01*
G01*
X144190000Y-108827500D01*
G75*
G02*
X144337500Y-108680000I147500J0D01*
G01*
X144632500Y-108680000D01*
G75*
G02*
X144780000Y-108827500I0J-147500D01*
G01*
G37*
%TD*%
%TO.C,C89*%
G36*
G01*
X136190000Y-108172500D02*
X136190000Y-107827500D01*
G75*
G02*
X136337500Y-107680000I147500J0D01*
G01*
X136632500Y-107680000D01*
G75*
G02*
X136780000Y-107827500I0J-147500D01*
G01*
X136780000Y-108172500D01*
G75*
G02*
X136632500Y-108320000I-147500J0D01*
G01*
X136337500Y-108320000D01*
G75*
G02*
X136190000Y-108172500I0J147500D01*
G01*
G37*
G36*
G01*
X135220000Y-108172500D02*
X135220000Y-107827500D01*
G75*
G02*
X135367500Y-107680000I147500J0D01*
G01*
X135662500Y-107680000D01*
G75*
G02*
X135810000Y-107827500I0J-147500D01*
G01*
X135810000Y-108172500D01*
G75*
G02*
X135662500Y-108320000I-147500J0D01*
G01*
X135367500Y-108320000D01*
G75*
G02*
X135220000Y-108172500I0J147500D01*
G01*
G37*
%TD*%
%TO.C,C88*%
G36*
G01*
X140190000Y-111172500D02*
X140190000Y-110827500D01*
G75*
G02*
X140337500Y-110680000I147500J0D01*
G01*
X140632500Y-110680000D01*
G75*
G02*
X140780000Y-110827500I0J-147500D01*
G01*
X140780000Y-111172500D01*
G75*
G02*
X140632500Y-111320000I-147500J0D01*
G01*
X140337500Y-111320000D01*
G75*
G02*
X140190000Y-111172500I0J147500D01*
G01*
G37*
G36*
G01*
X139220000Y-111172500D02*
X139220000Y-110827500D01*
G75*
G02*
X139367500Y-110680000I147500J0D01*
G01*
X139662500Y-110680000D01*
G75*
G02*
X139810000Y-110827500I0J-147500D01*
G01*
X139810000Y-111172500D01*
G75*
G02*
X139662500Y-111320000I-147500J0D01*
G01*
X139367500Y-111320000D01*
G75*
G02*
X139220000Y-111172500I0J147500D01*
G01*
G37*
%TD*%
%TO.C,C87*%
G36*
G01*
X135810000Y-104827500D02*
X135810000Y-105172500D01*
G75*
G02*
X135662500Y-105320000I-147500J0D01*
G01*
X135367500Y-105320000D01*
G75*
G02*
X135220000Y-105172500I0J147500D01*
G01*
X135220000Y-104827500D01*
G75*
G02*
X135367500Y-104680000I147500J0D01*
G01*
X135662500Y-104680000D01*
G75*
G02*
X135810000Y-104827500I0J-147500D01*
G01*
G37*
G36*
G01*
X136780000Y-104827500D02*
X136780000Y-105172500D01*
G75*
G02*
X136632500Y-105320000I-147500J0D01*
G01*
X136337500Y-105320000D01*
G75*
G02*
X136190000Y-105172500I0J147500D01*
G01*
X136190000Y-104827500D01*
G75*
G02*
X136337500Y-104680000I147500J0D01*
G01*
X136632500Y-104680000D01*
G75*
G02*
X136780000Y-104827500I0J-147500D01*
G01*
G37*
%TD*%
%TO.C,C86*%
G36*
G01*
X132190000Y-108172500D02*
X132190000Y-107827500D01*
G75*
G02*
X132337500Y-107680000I147500J0D01*
G01*
X132632500Y-107680000D01*
G75*
G02*
X132780000Y-107827500I0J-147500D01*
G01*
X132780000Y-108172500D01*
G75*
G02*
X132632500Y-108320000I-147500J0D01*
G01*
X132337500Y-108320000D01*
G75*
G02*
X132190000Y-108172500I0J147500D01*
G01*
G37*
G36*
G01*
X131220000Y-108172500D02*
X131220000Y-107827500D01*
G75*
G02*
X131367500Y-107680000I147500J0D01*
G01*
X131662500Y-107680000D01*
G75*
G02*
X131810000Y-107827500I0J-147500D01*
G01*
X131810000Y-108172500D01*
G75*
G02*
X131662500Y-108320000I-147500J0D01*
G01*
X131367500Y-108320000D01*
G75*
G02*
X131220000Y-108172500I0J147500D01*
G01*
G37*
%TD*%
%TO.C,C85*%
G36*
G01*
X143810000Y-107827500D02*
X143810000Y-108172500D01*
G75*
G02*
X143662500Y-108320000I-147500J0D01*
G01*
X143367500Y-108320000D01*
G75*
G02*
X143220000Y-108172500I0J147500D01*
G01*
X143220000Y-107827500D01*
G75*
G02*
X143367500Y-107680000I147500J0D01*
G01*
X143662500Y-107680000D01*
G75*
G02*
X143810000Y-107827500I0J-147500D01*
G01*
G37*
G36*
G01*
X144780000Y-107827500D02*
X144780000Y-108172500D01*
G75*
G02*
X144632500Y-108320000I-147500J0D01*
G01*
X144337500Y-108320000D01*
G75*
G02*
X144190000Y-108172500I0J147500D01*
G01*
X144190000Y-107827500D01*
G75*
G02*
X144337500Y-107680000I147500J0D01*
G01*
X144632500Y-107680000D01*
G75*
G02*
X144780000Y-107827500I0J-147500D01*
G01*
G37*
%TD*%
%TO.C,C83*%
G36*
G01*
X135190000Y-111172500D02*
X135190000Y-110827500D01*
G75*
G02*
X135337500Y-110680000I147500J0D01*
G01*
X135632500Y-110680000D01*
G75*
G02*
X135780000Y-110827500I0J-147500D01*
G01*
X135780000Y-111172500D01*
G75*
G02*
X135632500Y-111320000I-147500J0D01*
G01*
X135337500Y-111320000D01*
G75*
G02*
X135190000Y-111172500I0J147500D01*
G01*
G37*
G36*
G01*
X134220000Y-111172500D02*
X134220000Y-110827500D01*
G75*
G02*
X134367500Y-110680000I147500J0D01*
G01*
X134662500Y-110680000D01*
G75*
G02*
X134810000Y-110827500I0J-147500D01*
G01*
X134810000Y-111172500D01*
G75*
G02*
X134662500Y-111320000I-147500J0D01*
G01*
X134367500Y-111320000D01*
G75*
G02*
X134220000Y-111172500I0J147500D01*
G01*
G37*
%TD*%
%TO.C,C82*%
G36*
G01*
X139810000Y-114827500D02*
X139810000Y-115172500D01*
G75*
G02*
X139662500Y-115320000I-147500J0D01*
G01*
X139367500Y-115320000D01*
G75*
G02*
X139220000Y-115172500I0J147500D01*
G01*
X139220000Y-114827500D01*
G75*
G02*
X139367500Y-114680000I147500J0D01*
G01*
X139662500Y-114680000D01*
G75*
G02*
X139810000Y-114827500I0J-147500D01*
G01*
G37*
G36*
G01*
X140780000Y-114827500D02*
X140780000Y-115172500D01*
G75*
G02*
X140632500Y-115320000I-147500J0D01*
G01*
X140337500Y-115320000D01*
G75*
G02*
X140190000Y-115172500I0J147500D01*
G01*
X140190000Y-114827500D01*
G75*
G02*
X140337500Y-114680000I147500J0D01*
G01*
X140632500Y-114680000D01*
G75*
G02*
X140780000Y-114827500I0J-147500D01*
G01*
G37*
%TD*%
%TO.C,C81*%
G36*
G01*
X141190000Y-105172500D02*
X141190000Y-104827500D01*
G75*
G02*
X141337500Y-104680000I147500J0D01*
G01*
X141632500Y-104680000D01*
G75*
G02*
X141780000Y-104827500I0J-147500D01*
G01*
X141780000Y-105172500D01*
G75*
G02*
X141632500Y-105320000I-147500J0D01*
G01*
X141337500Y-105320000D01*
G75*
G02*
X141190000Y-105172500I0J147500D01*
G01*
G37*
G36*
G01*
X140220000Y-105172500D02*
X140220000Y-104827500D01*
G75*
G02*
X140367500Y-104680000I147500J0D01*
G01*
X140662500Y-104680000D01*
G75*
G02*
X140810000Y-104827500I0J-147500D01*
G01*
X140810000Y-105172500D01*
G75*
G02*
X140662500Y-105320000I-147500J0D01*
G01*
X140367500Y-105320000D01*
G75*
G02*
X140220000Y-105172500I0J147500D01*
G01*
G37*
%TD*%
%TO.C,C80*%
G36*
G01*
X132190000Y-112172500D02*
X132190000Y-111827500D01*
G75*
G02*
X132337500Y-111680000I147500J0D01*
G01*
X132632500Y-111680000D01*
G75*
G02*
X132780000Y-111827500I0J-147500D01*
G01*
X132780000Y-112172500D01*
G75*
G02*
X132632500Y-112320000I-147500J0D01*
G01*
X132337500Y-112320000D01*
G75*
G02*
X132190000Y-112172500I0J147500D01*
G01*
G37*
G36*
G01*
X131220000Y-112172500D02*
X131220000Y-111827500D01*
G75*
G02*
X131367500Y-111680000I147500J0D01*
G01*
X131662500Y-111680000D01*
G75*
G02*
X131810000Y-111827500I0J-147500D01*
G01*
X131810000Y-112172500D01*
G75*
G02*
X131662500Y-112320000I-147500J0D01*
G01*
X131367500Y-112320000D01*
G75*
G02*
X131220000Y-112172500I0J147500D01*
G01*
G37*
%TD*%
%TO.C,C79*%
G36*
G01*
X143810000Y-111827500D02*
X143810000Y-112172500D01*
G75*
G02*
X143662500Y-112320000I-147500J0D01*
G01*
X143367500Y-112320000D01*
G75*
G02*
X143220000Y-112172500I0J147500D01*
G01*
X143220000Y-111827500D01*
G75*
G02*
X143367500Y-111680000I147500J0D01*
G01*
X143662500Y-111680000D01*
G75*
G02*
X143810000Y-111827500I0J-147500D01*
G01*
G37*
G36*
G01*
X144780000Y-111827500D02*
X144780000Y-112172500D01*
G75*
G02*
X144632500Y-112320000I-147500J0D01*
G01*
X144337500Y-112320000D01*
G75*
G02*
X144190000Y-112172500I0J147500D01*
G01*
X144190000Y-111827500D01*
G75*
G02*
X144337500Y-111680000I147500J0D01*
G01*
X144632500Y-111680000D01*
G75*
G02*
X144780000Y-111827500I0J-147500D01*
G01*
G37*
%TD*%
%TO.C,C77*%
G36*
G01*
X135190000Y-109172500D02*
X135190000Y-108827500D01*
G75*
G02*
X135337500Y-108680000I147500J0D01*
G01*
X135632500Y-108680000D01*
G75*
G02*
X135780000Y-108827500I0J-147500D01*
G01*
X135780000Y-109172500D01*
G75*
G02*
X135632500Y-109320000I-147500J0D01*
G01*
X135337500Y-109320000D01*
G75*
G02*
X135190000Y-109172500I0J147500D01*
G01*
G37*
G36*
G01*
X134220000Y-109172500D02*
X134220000Y-108827500D01*
G75*
G02*
X134367500Y-108680000I147500J0D01*
G01*
X134662500Y-108680000D01*
G75*
G02*
X134810000Y-108827500I0J-147500D01*
G01*
X134810000Y-109172500D01*
G75*
G02*
X134662500Y-109320000I-147500J0D01*
G01*
X134367500Y-109320000D01*
G75*
G02*
X134220000Y-109172500I0J147500D01*
G01*
G37*
%TD*%
%TO.C,C76*%
G36*
G01*
X139810000Y-108827500D02*
X139810000Y-109172500D01*
G75*
G02*
X139662500Y-109320000I-147500J0D01*
G01*
X139367500Y-109320000D01*
G75*
G02*
X139220000Y-109172500I0J147500D01*
G01*
X139220000Y-108827500D01*
G75*
G02*
X139367500Y-108680000I147500J0D01*
G01*
X139662500Y-108680000D01*
G75*
G02*
X139810000Y-108827500I0J-147500D01*
G01*
G37*
G36*
G01*
X140780000Y-108827500D02*
X140780000Y-109172500D01*
G75*
G02*
X140632500Y-109320000I-147500J0D01*
G01*
X140337500Y-109320000D01*
G75*
G02*
X140190000Y-109172500I0J147500D01*
G01*
X140190000Y-108827500D01*
G75*
G02*
X140337500Y-108680000I147500J0D01*
G01*
X140632500Y-108680000D01*
G75*
G02*
X140780000Y-108827500I0J-147500D01*
G01*
G37*
%TD*%
%TO.C,C75*%
G36*
G01*
X141190000Y-104172500D02*
X141190000Y-103827500D01*
G75*
G02*
X141337500Y-103680000I147500J0D01*
G01*
X141632500Y-103680000D01*
G75*
G02*
X141780000Y-103827500I0J-147500D01*
G01*
X141780000Y-104172500D01*
G75*
G02*
X141632500Y-104320000I-147500J0D01*
G01*
X141337500Y-104320000D01*
G75*
G02*
X141190000Y-104172500I0J147500D01*
G01*
G37*
G36*
G01*
X140220000Y-104172500D02*
X140220000Y-103827500D01*
G75*
G02*
X140367500Y-103680000I147500J0D01*
G01*
X140662500Y-103680000D01*
G75*
G02*
X140810000Y-103827500I0J-147500D01*
G01*
X140810000Y-104172500D01*
G75*
G02*
X140662500Y-104320000I-147500J0D01*
G01*
X140367500Y-104320000D01*
G75*
G02*
X140220000Y-104172500I0J147500D01*
G01*
G37*
%TD*%
%TO.C,C74*%
G36*
G01*
X132190000Y-105172500D02*
X132190000Y-104827500D01*
G75*
G02*
X132337500Y-104680000I147500J0D01*
G01*
X132632500Y-104680000D01*
G75*
G02*
X132780000Y-104827500I0J-147500D01*
G01*
X132780000Y-105172500D01*
G75*
G02*
X132632500Y-105320000I-147500J0D01*
G01*
X132337500Y-105320000D01*
G75*
G02*
X132190000Y-105172500I0J147500D01*
G01*
G37*
G36*
G01*
X131220000Y-105172500D02*
X131220000Y-104827500D01*
G75*
G02*
X131367500Y-104680000I147500J0D01*
G01*
X131662500Y-104680000D01*
G75*
G02*
X131810000Y-104827500I0J-147500D01*
G01*
X131810000Y-105172500D01*
G75*
G02*
X131662500Y-105320000I-147500J0D01*
G01*
X131367500Y-105320000D01*
G75*
G02*
X131220000Y-105172500I0J147500D01*
G01*
G37*
%TD*%
%TO.C,C73*%
G36*
G01*
X143810000Y-104827500D02*
X143810000Y-105172500D01*
G75*
G02*
X143662500Y-105320000I-147500J0D01*
G01*
X143367500Y-105320000D01*
G75*
G02*
X143220000Y-105172500I0J147500D01*
G01*
X143220000Y-104827500D01*
G75*
G02*
X143367500Y-104680000I147500J0D01*
G01*
X143662500Y-104680000D01*
G75*
G02*
X143810000Y-104827500I0J-147500D01*
G01*
G37*
G36*
G01*
X144780000Y-104827500D02*
X144780000Y-105172500D01*
G75*
G02*
X144632500Y-105320000I-147500J0D01*
G01*
X144337500Y-105320000D01*
G75*
G02*
X144190000Y-105172500I0J147500D01*
G01*
X144190000Y-104827500D01*
G75*
G02*
X144337500Y-104680000I147500J0D01*
G01*
X144632500Y-104680000D01*
G75*
G02*
X144780000Y-104827500I0J-147500D01*
G01*
G37*
%TD*%
%TO.C,C72*%
G36*
G01*
X104190000Y-108672500D02*
X104190000Y-108327500D01*
G75*
G02*
X104337500Y-108180000I147500J0D01*
G01*
X104632500Y-108180000D01*
G75*
G02*
X104780000Y-108327500I0J-147500D01*
G01*
X104780000Y-108672500D01*
G75*
G02*
X104632500Y-108820000I-147500J0D01*
G01*
X104337500Y-108820000D01*
G75*
G02*
X104190000Y-108672500I0J147500D01*
G01*
G37*
G36*
G01*
X103220000Y-108672500D02*
X103220000Y-108327500D01*
G75*
G02*
X103367500Y-108180000I147500J0D01*
G01*
X103662500Y-108180000D01*
G75*
G02*
X103810000Y-108327500I0J-147500D01*
G01*
X103810000Y-108672500D01*
G75*
G02*
X103662500Y-108820000I-147500J0D01*
G01*
X103367500Y-108820000D01*
G75*
G02*
X103220000Y-108672500I0J147500D01*
G01*
G37*
%TD*%
%TO.C,C71*%
G36*
G01*
X111190000Y-107672500D02*
X111190000Y-107327500D01*
G75*
G02*
X111337500Y-107180000I147500J0D01*
G01*
X111632500Y-107180000D01*
G75*
G02*
X111780000Y-107327500I0J-147500D01*
G01*
X111780000Y-107672500D01*
G75*
G02*
X111632500Y-107820000I-147500J0D01*
G01*
X111337500Y-107820000D01*
G75*
G02*
X111190000Y-107672500I0J147500D01*
G01*
G37*
G36*
G01*
X110220000Y-107672500D02*
X110220000Y-107327500D01*
G75*
G02*
X110367500Y-107180000I147500J0D01*
G01*
X110662500Y-107180000D01*
G75*
G02*
X110810000Y-107327500I0J-147500D01*
G01*
X110810000Y-107672500D01*
G75*
G02*
X110662500Y-107820000I-147500J0D01*
G01*
X110367500Y-107820000D01*
G75*
G02*
X110220000Y-107672500I0J147500D01*
G01*
G37*
%TD*%
%TO.C,C70*%
G36*
G01*
X104190000Y-107672500D02*
X104190000Y-107327500D01*
G75*
G02*
X104337500Y-107180000I147500J0D01*
G01*
X104632500Y-107180000D01*
G75*
G02*
X104780000Y-107327500I0J-147500D01*
G01*
X104780000Y-107672500D01*
G75*
G02*
X104632500Y-107820000I-147500J0D01*
G01*
X104337500Y-107820000D01*
G75*
G02*
X104190000Y-107672500I0J147500D01*
G01*
G37*
G36*
G01*
X103220000Y-107672500D02*
X103220000Y-107327500D01*
G75*
G02*
X103367500Y-107180000I147500J0D01*
G01*
X103662500Y-107180000D01*
G75*
G02*
X103810000Y-107327500I0J-147500D01*
G01*
X103810000Y-107672500D01*
G75*
G02*
X103662500Y-107820000I-147500J0D01*
G01*
X103367500Y-107820000D01*
G75*
G02*
X103220000Y-107672500I0J147500D01*
G01*
G37*
%TD*%
%TO.C,C69*%
G36*
G01*
X111190000Y-112672500D02*
X111190000Y-112327500D01*
G75*
G02*
X111337500Y-112180000I147500J0D01*
G01*
X111632500Y-112180000D01*
G75*
G02*
X111780000Y-112327500I0J-147500D01*
G01*
X111780000Y-112672500D01*
G75*
G02*
X111632500Y-112820000I-147500J0D01*
G01*
X111337500Y-112820000D01*
G75*
G02*
X111190000Y-112672500I0J147500D01*
G01*
G37*
G36*
G01*
X110220000Y-112672500D02*
X110220000Y-112327500D01*
G75*
G02*
X110367500Y-112180000I147500J0D01*
G01*
X110662500Y-112180000D01*
G75*
G02*
X110810000Y-112327500I0J-147500D01*
G01*
X110810000Y-112672500D01*
G75*
G02*
X110662500Y-112820000I-147500J0D01*
G01*
X110367500Y-112820000D01*
G75*
G02*
X110220000Y-112672500I0J147500D01*
G01*
G37*
%TD*%
%TO.C,C68*%
G36*
G01*
X111190000Y-106672500D02*
X111190000Y-106327500D01*
G75*
G02*
X111337500Y-106180000I147500J0D01*
G01*
X111632500Y-106180000D01*
G75*
G02*
X111780000Y-106327500I0J-147500D01*
G01*
X111780000Y-106672500D01*
G75*
G02*
X111632500Y-106820000I-147500J0D01*
G01*
X111337500Y-106820000D01*
G75*
G02*
X111190000Y-106672500I0J147500D01*
G01*
G37*
G36*
G01*
X110220000Y-106672500D02*
X110220000Y-106327500D01*
G75*
G02*
X110367500Y-106180000I147500J0D01*
G01*
X110662500Y-106180000D01*
G75*
G02*
X110810000Y-106327500I0J-147500D01*
G01*
X110810000Y-106672500D01*
G75*
G02*
X110662500Y-106820000I-147500J0D01*
G01*
X110367500Y-106820000D01*
G75*
G02*
X110220000Y-106672500I0J147500D01*
G01*
G37*
%TD*%
%TO.C,C67*%
G36*
G01*
X104190000Y-111672500D02*
X104190000Y-111327500D01*
G75*
G02*
X104337500Y-111180000I147500J0D01*
G01*
X104632500Y-111180000D01*
G75*
G02*
X104780000Y-111327500I0J-147500D01*
G01*
X104780000Y-111672500D01*
G75*
G02*
X104632500Y-111820000I-147500J0D01*
G01*
X104337500Y-111820000D01*
G75*
G02*
X104190000Y-111672500I0J147500D01*
G01*
G37*
G36*
G01*
X103220000Y-111672500D02*
X103220000Y-111327500D01*
G75*
G02*
X103367500Y-111180000I147500J0D01*
G01*
X103662500Y-111180000D01*
G75*
G02*
X103810000Y-111327500I0J-147500D01*
G01*
X103810000Y-111672500D01*
G75*
G02*
X103662500Y-111820000I-147500J0D01*
G01*
X103367500Y-111820000D01*
G75*
G02*
X103220000Y-111672500I0J147500D01*
G01*
G37*
%TD*%
%TO.C,C66*%
G36*
G01*
X111190000Y-111672500D02*
X111190000Y-111327500D01*
G75*
G02*
X111337500Y-111180000I147500J0D01*
G01*
X111632500Y-111180000D01*
G75*
G02*
X111780000Y-111327500I0J-147500D01*
G01*
X111780000Y-111672500D01*
G75*
G02*
X111632500Y-111820000I-147500J0D01*
G01*
X111337500Y-111820000D01*
G75*
G02*
X111190000Y-111672500I0J147500D01*
G01*
G37*
G36*
G01*
X110220000Y-111672500D02*
X110220000Y-111327500D01*
G75*
G02*
X110367500Y-111180000I147500J0D01*
G01*
X110662500Y-111180000D01*
G75*
G02*
X110810000Y-111327500I0J-147500D01*
G01*
X110810000Y-111672500D01*
G75*
G02*
X110662500Y-111820000I-147500J0D01*
G01*
X110367500Y-111820000D01*
G75*
G02*
X110220000Y-111672500I0J147500D01*
G01*
G37*
%TD*%
%TO.C,C62*%
G36*
G01*
X104190000Y-105672500D02*
X104190000Y-105327500D01*
G75*
G02*
X104337500Y-105180000I147500J0D01*
G01*
X104632500Y-105180000D01*
G75*
G02*
X104780000Y-105327500I0J-147500D01*
G01*
X104780000Y-105672500D01*
G75*
G02*
X104632500Y-105820000I-147500J0D01*
G01*
X104337500Y-105820000D01*
G75*
G02*
X104190000Y-105672500I0J147500D01*
G01*
G37*
G36*
G01*
X103220000Y-105672500D02*
X103220000Y-105327500D01*
G75*
G02*
X103367500Y-105180000I147500J0D01*
G01*
X103662500Y-105180000D01*
G75*
G02*
X103810000Y-105327500I0J-147500D01*
G01*
X103810000Y-105672500D01*
G75*
G02*
X103662500Y-105820000I-147500J0D01*
G01*
X103367500Y-105820000D01*
G75*
G02*
X103220000Y-105672500I0J147500D01*
G01*
G37*
%TD*%
M02*
