%TF.GenerationSoftware,KiCad,Pcbnew,5.99.0-unknown-40250c4~101~ubuntu18.04.1*%
%TF.CreationDate,2020-06-07T19:24:17+02:00*%
%TF.ProjectId,digitizer_fpga_10b_100MSPS,64696769-7469-47a6-9572-5f667067615f,1.0*%
%TF.SameCoordinates,Original*%
%TF.FileFunction,Paste,Top*%
%TF.FilePolarity,Positive*%
%FSLAX46Y46*%
G04 Gerber Fmt 4.6, Leading zero omitted, Abs format (unit mm)*
G04 Created by KiCad (PCBNEW 5.99.0-unknown-40250c4~101~ubuntu18.04.1) date 2020-06-07 19:24:17*
%MOMM*%
%LPD*%
G01*
G04 APERTURE LIST*
%ADD10C,2.000000*%
%ADD11R,1.296000X4.032000*%
G04 APERTURE END LIST*
D10*
%TO.C,FD8*%
X171000000Y-149060500D03*
%TD*%
%TO.C,FD7*%
X73000000Y-107060500D03*
%TD*%
%TO.C,R81*%
G36*
G01*
X148298200Y-135394900D02*
X148298200Y-135726100D01*
G75*
G02*
X148156600Y-135867700I-141600J0D01*
G01*
X147873400Y-135867700D01*
G75*
G02*
X147731800Y-135726100I0J141600D01*
G01*
X147731800Y-135394900D01*
G75*
G02*
X147873400Y-135253300I141600J0D01*
G01*
X148156600Y-135253300D01*
G75*
G02*
X148298200Y-135394900I0J-141600D01*
G01*
G37*
G36*
G01*
X149268200Y-135394900D02*
X149268200Y-135726100D01*
G75*
G02*
X149126600Y-135867700I-141600J0D01*
G01*
X148843400Y-135867700D01*
G75*
G02*
X148701800Y-135726100I0J141600D01*
G01*
X148701800Y-135394900D01*
G75*
G02*
X148843400Y-135253300I141600J0D01*
G01*
X149126600Y-135253300D01*
G75*
G02*
X149268200Y-135394900I0J-141600D01*
G01*
G37*
%TD*%
%TO.C,C94*%
G36*
G01*
X135201800Y-134226100D02*
X135201800Y-133894900D01*
G75*
G02*
X135343400Y-133753300I141600J0D01*
G01*
X135626600Y-133753300D01*
G75*
G02*
X135768200Y-133894900I0J-141600D01*
G01*
X135768200Y-134226100D01*
G75*
G02*
X135626600Y-134367700I-141600J0D01*
G01*
X135343400Y-134367700D01*
G75*
G02*
X135201800Y-134226100I0J141600D01*
G01*
G37*
G36*
G01*
X134231800Y-134226100D02*
X134231800Y-133894900D01*
G75*
G02*
X134373400Y-133753300I141600J0D01*
G01*
X134656600Y-133753300D01*
G75*
G02*
X134798200Y-133894900I0J-141600D01*
G01*
X134798200Y-134226100D01*
G75*
G02*
X134656600Y-134367700I-141600J0D01*
G01*
X134373400Y-134367700D01*
G75*
G02*
X134231800Y-134226100I0J141600D01*
G01*
G37*
%TD*%
%TO.C,C65*%
G36*
G01*
X104201800Y-136726100D02*
X104201800Y-136394900D01*
G75*
G02*
X104343400Y-136253300I141600J0D01*
G01*
X104626600Y-136253300D01*
G75*
G02*
X104768200Y-136394900I0J-141600D01*
G01*
X104768200Y-136726100D01*
G75*
G02*
X104626600Y-136867700I-141600J0D01*
G01*
X104343400Y-136867700D01*
G75*
G02*
X104201800Y-136726100I0J141600D01*
G01*
G37*
G36*
G01*
X103231800Y-136726100D02*
X103231800Y-136394900D01*
G75*
G02*
X103373400Y-136253300I141600J0D01*
G01*
X103656600Y-136253300D01*
G75*
G02*
X103798200Y-136394900I0J-141600D01*
G01*
X103798200Y-136726100D01*
G75*
G02*
X103656600Y-136867700I-141600J0D01*
G01*
X103373400Y-136867700D01*
G75*
G02*
X103231800Y-136726100I0J141600D01*
G01*
G37*
%TD*%
%TO.C,C64*%
G36*
G01*
X104201800Y-140726100D02*
X104201800Y-140394900D01*
G75*
G02*
X104343400Y-140253300I141600J0D01*
G01*
X104626600Y-140253300D01*
G75*
G02*
X104768200Y-140394900I0J-141600D01*
G01*
X104768200Y-140726100D01*
G75*
G02*
X104626600Y-140867700I-141600J0D01*
G01*
X104343400Y-140867700D01*
G75*
G02*
X104201800Y-140726100I0J141600D01*
G01*
G37*
G36*
G01*
X103231800Y-140726100D02*
X103231800Y-140394900D01*
G75*
G02*
X103373400Y-140253300I141600J0D01*
G01*
X103656600Y-140253300D01*
G75*
G02*
X103798200Y-140394900I0J-141600D01*
G01*
X103798200Y-140726100D01*
G75*
G02*
X103656600Y-140867700I-141600J0D01*
G01*
X103373400Y-140867700D01*
G75*
G02*
X103231800Y-140726100I0J141600D01*
G01*
G37*
%TD*%
%TO.C,C63*%
G36*
G01*
X104201800Y-137726100D02*
X104201800Y-137394900D01*
G75*
G02*
X104343400Y-137253300I141600J0D01*
G01*
X104626600Y-137253300D01*
G75*
G02*
X104768200Y-137394900I0J-141600D01*
G01*
X104768200Y-137726100D01*
G75*
G02*
X104626600Y-137867700I-141600J0D01*
G01*
X104343400Y-137867700D01*
G75*
G02*
X104201800Y-137726100I0J141600D01*
G01*
G37*
G36*
G01*
X103231800Y-137726100D02*
X103231800Y-137394900D01*
G75*
G02*
X103373400Y-137253300I141600J0D01*
G01*
X103656600Y-137253300D01*
G75*
G02*
X103798200Y-137394900I0J-141600D01*
G01*
X103798200Y-137726100D01*
G75*
G02*
X103656600Y-137867700I-141600J0D01*
G01*
X103373400Y-137867700D01*
G75*
G02*
X103231800Y-137726100I0J141600D01*
G01*
G37*
%TD*%
%TO.C,R87*%
G36*
G01*
X143798200Y-143894900D02*
X143798200Y-144226100D01*
G75*
G02*
X143656600Y-144367700I-141600J0D01*
G01*
X143373400Y-144367700D01*
G75*
G02*
X143231800Y-144226100I0J141600D01*
G01*
X143231800Y-143894900D01*
G75*
G02*
X143373400Y-143753300I141600J0D01*
G01*
X143656600Y-143753300D01*
G75*
G02*
X143798200Y-143894900I0J-141600D01*
G01*
G37*
G36*
G01*
X144768200Y-143894900D02*
X144768200Y-144226100D01*
G75*
G02*
X144626600Y-144367700I-141600J0D01*
G01*
X144343400Y-144367700D01*
G75*
G02*
X144201800Y-144226100I0J141600D01*
G01*
X144201800Y-143894900D01*
G75*
G02*
X144343400Y-143753300I141600J0D01*
G01*
X144626600Y-143753300D01*
G75*
G02*
X144768200Y-143894900I0J-141600D01*
G01*
G37*
%TD*%
%TO.C,R86*%
G36*
G01*
X143798200Y-144894900D02*
X143798200Y-145226100D01*
G75*
G02*
X143656600Y-145367700I-141600J0D01*
G01*
X143373400Y-145367700D01*
G75*
G02*
X143231800Y-145226100I0J141600D01*
G01*
X143231800Y-144894900D01*
G75*
G02*
X143373400Y-144753300I141600J0D01*
G01*
X143656600Y-144753300D01*
G75*
G02*
X143798200Y-144894900I0J-141600D01*
G01*
G37*
G36*
G01*
X144768200Y-144894900D02*
X144768200Y-145226100D01*
G75*
G02*
X144626600Y-145367700I-141600J0D01*
G01*
X144343400Y-145367700D01*
G75*
G02*
X144201800Y-145226100I0J141600D01*
G01*
X144201800Y-144894900D01*
G75*
G02*
X144343400Y-144753300I141600J0D01*
G01*
X144626600Y-144753300D01*
G75*
G02*
X144768200Y-144894900I0J-141600D01*
G01*
G37*
%TD*%
%TO.C,R85*%
G36*
G01*
X148298200Y-140394900D02*
X148298200Y-140726100D01*
G75*
G02*
X148156600Y-140867700I-141600J0D01*
G01*
X147873400Y-140867700D01*
G75*
G02*
X147731800Y-140726100I0J141600D01*
G01*
X147731800Y-140394900D01*
G75*
G02*
X147873400Y-140253300I141600J0D01*
G01*
X148156600Y-140253300D01*
G75*
G02*
X148298200Y-140394900I0J-141600D01*
G01*
G37*
G36*
G01*
X149268200Y-140394900D02*
X149268200Y-140726100D01*
G75*
G02*
X149126600Y-140867700I-141600J0D01*
G01*
X148843400Y-140867700D01*
G75*
G02*
X148701800Y-140726100I0J141600D01*
G01*
X148701800Y-140394900D01*
G75*
G02*
X148843400Y-140253300I141600J0D01*
G01*
X149126600Y-140253300D01*
G75*
G02*
X149268200Y-140394900I0J-141600D01*
G01*
G37*
%TD*%
%TO.C,R84*%
G36*
G01*
X148298200Y-139394900D02*
X148298200Y-139726100D01*
G75*
G02*
X148156600Y-139867700I-141600J0D01*
G01*
X147873400Y-139867700D01*
G75*
G02*
X147731800Y-139726100I0J141600D01*
G01*
X147731800Y-139394900D01*
G75*
G02*
X147873400Y-139253300I141600J0D01*
G01*
X148156600Y-139253300D01*
G75*
G02*
X148298200Y-139394900I0J-141600D01*
G01*
G37*
G36*
G01*
X149268200Y-139394900D02*
X149268200Y-139726100D01*
G75*
G02*
X149126600Y-139867700I-141600J0D01*
G01*
X148843400Y-139867700D01*
G75*
G02*
X148701800Y-139726100I0J141600D01*
G01*
X148701800Y-139394900D01*
G75*
G02*
X148843400Y-139253300I141600J0D01*
G01*
X149126600Y-139253300D01*
G75*
G02*
X149268200Y-139394900I0J-141600D01*
G01*
G37*
%TD*%
%TO.C,R83*%
G36*
G01*
X148298200Y-137394900D02*
X148298200Y-137726100D01*
G75*
G02*
X148156600Y-137867700I-141600J0D01*
G01*
X147873400Y-137867700D01*
G75*
G02*
X147731800Y-137726100I0J141600D01*
G01*
X147731800Y-137394900D01*
G75*
G02*
X147873400Y-137253300I141600J0D01*
G01*
X148156600Y-137253300D01*
G75*
G02*
X148298200Y-137394900I0J-141600D01*
G01*
G37*
G36*
G01*
X149268200Y-137394900D02*
X149268200Y-137726100D01*
G75*
G02*
X149126600Y-137867700I-141600J0D01*
G01*
X148843400Y-137867700D01*
G75*
G02*
X148701800Y-137726100I0J141600D01*
G01*
X148701800Y-137394900D01*
G75*
G02*
X148843400Y-137253300I141600J0D01*
G01*
X149126600Y-137253300D01*
G75*
G02*
X149268200Y-137394900I0J-141600D01*
G01*
G37*
%TD*%
%TO.C,R82*%
G36*
G01*
X148298200Y-136394900D02*
X148298200Y-136726100D01*
G75*
G02*
X148156600Y-136867700I-141600J0D01*
G01*
X147873400Y-136867700D01*
G75*
G02*
X147731800Y-136726100I0J141600D01*
G01*
X147731800Y-136394900D01*
G75*
G02*
X147873400Y-136253300I141600J0D01*
G01*
X148156600Y-136253300D01*
G75*
G02*
X148298200Y-136394900I0J-141600D01*
G01*
G37*
G36*
G01*
X149268200Y-136394900D02*
X149268200Y-136726100D01*
G75*
G02*
X149126600Y-136867700I-141600J0D01*
G01*
X148843400Y-136867700D01*
G75*
G02*
X148701800Y-136726100I0J141600D01*
G01*
X148701800Y-136394900D01*
G75*
G02*
X148843400Y-136253300I141600J0D01*
G01*
X149126600Y-136253300D01*
G75*
G02*
X149268200Y-136394900I0J-141600D01*
G01*
G37*
%TD*%
%TO.C,R80*%
G36*
G01*
X148298200Y-134394900D02*
X148298200Y-134726100D01*
G75*
G02*
X148156600Y-134867700I-141600J0D01*
G01*
X147873400Y-134867700D01*
G75*
G02*
X147731800Y-134726100I0J141600D01*
G01*
X147731800Y-134394900D01*
G75*
G02*
X147873400Y-134253300I141600J0D01*
G01*
X148156600Y-134253300D01*
G75*
G02*
X148298200Y-134394900I0J-141600D01*
G01*
G37*
G36*
G01*
X149268200Y-134394900D02*
X149268200Y-134726100D01*
G75*
G02*
X149126600Y-134867700I-141600J0D01*
G01*
X148843400Y-134867700D01*
G75*
G02*
X148701800Y-134726100I0J141600D01*
G01*
X148701800Y-134394900D01*
G75*
G02*
X148843400Y-134253300I141600J0D01*
G01*
X149126600Y-134253300D01*
G75*
G02*
X149268200Y-134394900I0J-141600D01*
G01*
G37*
%TD*%
%TO.C,R79*%
G36*
G01*
X148298200Y-131394900D02*
X148298200Y-131726100D01*
G75*
G02*
X148156600Y-131867700I-141600J0D01*
G01*
X147873400Y-131867700D01*
G75*
G02*
X147731800Y-131726100I0J141600D01*
G01*
X147731800Y-131394900D01*
G75*
G02*
X147873400Y-131253300I141600J0D01*
G01*
X148156600Y-131253300D01*
G75*
G02*
X148298200Y-131394900I0J-141600D01*
G01*
G37*
G36*
G01*
X149268200Y-131394900D02*
X149268200Y-131726100D01*
G75*
G02*
X149126600Y-131867700I-141600J0D01*
G01*
X148843400Y-131867700D01*
G75*
G02*
X148701800Y-131726100I0J141600D01*
G01*
X148701800Y-131394900D01*
G75*
G02*
X148843400Y-131253300I141600J0D01*
G01*
X149126600Y-131253300D01*
G75*
G02*
X149268200Y-131394900I0J-141600D01*
G01*
G37*
%TD*%
%TO.C,R78*%
G36*
G01*
X148298200Y-130394900D02*
X148298200Y-130726100D01*
G75*
G02*
X148156600Y-130867700I-141600J0D01*
G01*
X147873400Y-130867700D01*
G75*
G02*
X147731800Y-130726100I0J141600D01*
G01*
X147731800Y-130394900D01*
G75*
G02*
X147873400Y-130253300I141600J0D01*
G01*
X148156600Y-130253300D01*
G75*
G02*
X148298200Y-130394900I0J-141600D01*
G01*
G37*
G36*
G01*
X149268200Y-130394900D02*
X149268200Y-130726100D01*
G75*
G02*
X149126600Y-130867700I-141600J0D01*
G01*
X148843400Y-130867700D01*
G75*
G02*
X148701800Y-130726100I0J141600D01*
G01*
X148701800Y-130394900D01*
G75*
G02*
X148843400Y-130253300I141600J0D01*
G01*
X149126600Y-130253300D01*
G75*
G02*
X149268200Y-130394900I0J-141600D01*
G01*
G37*
%TD*%
%TO.C,R77*%
G36*
G01*
X148298200Y-129394900D02*
X148298200Y-129726100D01*
G75*
G02*
X148156600Y-129867700I-141600J0D01*
G01*
X147873400Y-129867700D01*
G75*
G02*
X147731800Y-129726100I0J141600D01*
G01*
X147731800Y-129394900D01*
G75*
G02*
X147873400Y-129253300I141600J0D01*
G01*
X148156600Y-129253300D01*
G75*
G02*
X148298200Y-129394900I0J-141600D01*
G01*
G37*
G36*
G01*
X149268200Y-129394900D02*
X149268200Y-129726100D01*
G75*
G02*
X149126600Y-129867700I-141600J0D01*
G01*
X148843400Y-129867700D01*
G75*
G02*
X148701800Y-129726100I0J141600D01*
G01*
X148701800Y-129394900D01*
G75*
G02*
X148843400Y-129253300I141600J0D01*
G01*
X149126600Y-129253300D01*
G75*
G02*
X149268200Y-129394900I0J-141600D01*
G01*
G37*
%TD*%
%TO.C,R76*%
G36*
G01*
X148298200Y-124394900D02*
X148298200Y-124726100D01*
G75*
G02*
X148156600Y-124867700I-141600J0D01*
G01*
X147873400Y-124867700D01*
G75*
G02*
X147731800Y-124726100I0J141600D01*
G01*
X147731800Y-124394900D01*
G75*
G02*
X147873400Y-124253300I141600J0D01*
G01*
X148156600Y-124253300D01*
G75*
G02*
X148298200Y-124394900I0J-141600D01*
G01*
G37*
G36*
G01*
X149268200Y-124394900D02*
X149268200Y-124726100D01*
G75*
G02*
X149126600Y-124867700I-141600J0D01*
G01*
X148843400Y-124867700D01*
G75*
G02*
X148701800Y-124726100I0J141600D01*
G01*
X148701800Y-124394900D01*
G75*
G02*
X148843400Y-124253300I141600J0D01*
G01*
X149126600Y-124253300D01*
G75*
G02*
X149268200Y-124394900I0J-141600D01*
G01*
G37*
%TD*%
%TO.C,R75*%
G36*
G01*
X148298200Y-125394900D02*
X148298200Y-125726100D01*
G75*
G02*
X148156600Y-125867700I-141600J0D01*
G01*
X147873400Y-125867700D01*
G75*
G02*
X147731800Y-125726100I0J141600D01*
G01*
X147731800Y-125394900D01*
G75*
G02*
X147873400Y-125253300I141600J0D01*
G01*
X148156600Y-125253300D01*
G75*
G02*
X148298200Y-125394900I0J-141600D01*
G01*
G37*
G36*
G01*
X149268200Y-125394900D02*
X149268200Y-125726100D01*
G75*
G02*
X149126600Y-125867700I-141600J0D01*
G01*
X148843400Y-125867700D01*
G75*
G02*
X148701800Y-125726100I0J141600D01*
G01*
X148701800Y-125394900D01*
G75*
G02*
X148843400Y-125253300I141600J0D01*
G01*
X149126600Y-125253300D01*
G75*
G02*
X149268200Y-125394900I0J-141600D01*
G01*
G37*
%TD*%
%TO.C,R74*%
G36*
G01*
X148298200Y-126394900D02*
X148298200Y-126726100D01*
G75*
G02*
X148156600Y-126867700I-141600J0D01*
G01*
X147873400Y-126867700D01*
G75*
G02*
X147731800Y-126726100I0J141600D01*
G01*
X147731800Y-126394900D01*
G75*
G02*
X147873400Y-126253300I141600J0D01*
G01*
X148156600Y-126253300D01*
G75*
G02*
X148298200Y-126394900I0J-141600D01*
G01*
G37*
G36*
G01*
X149268200Y-126394900D02*
X149268200Y-126726100D01*
G75*
G02*
X149126600Y-126867700I-141600J0D01*
G01*
X148843400Y-126867700D01*
G75*
G02*
X148701800Y-126726100I0J141600D01*
G01*
X148701800Y-126394900D01*
G75*
G02*
X148843400Y-126253300I141600J0D01*
G01*
X149126600Y-126253300D01*
G75*
G02*
X149268200Y-126394900I0J-141600D01*
G01*
G37*
%TD*%
%TO.C,R73*%
G36*
G01*
X148298200Y-127394900D02*
X148298200Y-127726100D01*
G75*
G02*
X148156600Y-127867700I-141600J0D01*
G01*
X147873400Y-127867700D01*
G75*
G02*
X147731800Y-127726100I0J141600D01*
G01*
X147731800Y-127394900D01*
G75*
G02*
X147873400Y-127253300I141600J0D01*
G01*
X148156600Y-127253300D01*
G75*
G02*
X148298200Y-127394900I0J-141600D01*
G01*
G37*
G36*
G01*
X149268200Y-127394900D02*
X149268200Y-127726100D01*
G75*
G02*
X149126600Y-127867700I-141600J0D01*
G01*
X148843400Y-127867700D01*
G75*
G02*
X148701800Y-127726100I0J141600D01*
G01*
X148701800Y-127394900D01*
G75*
G02*
X148843400Y-127253300I141600J0D01*
G01*
X149126600Y-127253300D01*
G75*
G02*
X149268200Y-127394900I0J-141600D01*
G01*
G37*
%TD*%
%TO.C,R69*%
G36*
G01*
X148701800Y-132726100D02*
X148701800Y-132394900D01*
G75*
G02*
X148843400Y-132253300I141600J0D01*
G01*
X149126600Y-132253300D01*
G75*
G02*
X149268200Y-132394900I0J-141600D01*
G01*
X149268200Y-132726100D01*
G75*
G02*
X149126600Y-132867700I-141600J0D01*
G01*
X148843400Y-132867700D01*
G75*
G02*
X148701800Y-132726100I0J141600D01*
G01*
G37*
G36*
G01*
X147731800Y-132726100D02*
X147731800Y-132394900D01*
G75*
G02*
X147873400Y-132253300I141600J0D01*
G01*
X148156600Y-132253300D01*
G75*
G02*
X148298200Y-132394900I0J-141600D01*
G01*
X148298200Y-132726100D01*
G75*
G02*
X148156600Y-132867700I-141600J0D01*
G01*
X147873400Y-132867700D01*
G75*
G02*
X147731800Y-132726100I0J141600D01*
G01*
G37*
%TD*%
%TO.C,R66*%
G36*
G01*
X148701800Y-133726100D02*
X148701800Y-133394900D01*
G75*
G02*
X148843400Y-133253300I141600J0D01*
G01*
X149126600Y-133253300D01*
G75*
G02*
X149268200Y-133394900I0J-141600D01*
G01*
X149268200Y-133726100D01*
G75*
G02*
X149126600Y-133867700I-141600J0D01*
G01*
X148843400Y-133867700D01*
G75*
G02*
X148701800Y-133726100I0J141600D01*
G01*
G37*
G36*
G01*
X147731800Y-133726100D02*
X147731800Y-133394900D01*
G75*
G02*
X147873400Y-133253300I141600J0D01*
G01*
X148156600Y-133253300D01*
G75*
G02*
X148298200Y-133394900I0J-141600D01*
G01*
X148298200Y-133726100D01*
G75*
G02*
X148156600Y-133867700I-141600J0D01*
G01*
X147873400Y-133867700D01*
G75*
G02*
X147731800Y-133726100I0J141600D01*
G01*
G37*
%TD*%
D11*
%TO.C,J5*%
X102825000Y-99560500D03*
X97175000Y-99560500D03*
%TD*%
%TO.C,C107*%
G36*
G01*
X140201800Y-133226100D02*
X140201800Y-132894900D01*
G75*
G02*
X140343400Y-132753300I141600J0D01*
G01*
X140626600Y-132753300D01*
G75*
G02*
X140768200Y-132894900I0J-141600D01*
G01*
X140768200Y-133226100D01*
G75*
G02*
X140626600Y-133367700I-141600J0D01*
G01*
X140343400Y-133367700D01*
G75*
G02*
X140201800Y-133226100I0J141600D01*
G01*
G37*
G36*
G01*
X139231800Y-133226100D02*
X139231800Y-132894900D01*
G75*
G02*
X139373400Y-132753300I141600J0D01*
G01*
X139656600Y-132753300D01*
G75*
G02*
X139798200Y-132894900I0J-141600D01*
G01*
X139798200Y-133226100D01*
G75*
G02*
X139656600Y-133367700I-141600J0D01*
G01*
X139373400Y-133367700D01*
G75*
G02*
X139231800Y-133226100I0J141600D01*
G01*
G37*
%TD*%
%TO.C,C106*%
G36*
G01*
X139798200Y-136894900D02*
X139798200Y-137226100D01*
G75*
G02*
X139656600Y-137367700I-141600J0D01*
G01*
X139373400Y-137367700D01*
G75*
G02*
X139231800Y-137226100I0J141600D01*
G01*
X139231800Y-136894900D01*
G75*
G02*
X139373400Y-136753300I141600J0D01*
G01*
X139656600Y-136753300D01*
G75*
G02*
X139798200Y-136894900I0J-141600D01*
G01*
G37*
G36*
G01*
X140768200Y-136894900D02*
X140768200Y-137226100D01*
G75*
G02*
X140626600Y-137367700I-141600J0D01*
G01*
X140343400Y-137367700D01*
G75*
G02*
X140201800Y-137226100I0J141600D01*
G01*
X140201800Y-136894900D01*
G75*
G02*
X140343400Y-136753300I141600J0D01*
G01*
X140626600Y-136753300D01*
G75*
G02*
X140768200Y-136894900I0J-141600D01*
G01*
G37*
%TD*%
%TO.C,C105*%
G36*
G01*
X135798200Y-140894900D02*
X135798200Y-141226100D01*
G75*
G02*
X135656600Y-141367700I-141600J0D01*
G01*
X135373400Y-141367700D01*
G75*
G02*
X135231800Y-141226100I0J141600D01*
G01*
X135231800Y-140894900D01*
G75*
G02*
X135373400Y-140753300I141600J0D01*
G01*
X135656600Y-140753300D01*
G75*
G02*
X135798200Y-140894900I0J-141600D01*
G01*
G37*
G36*
G01*
X136768200Y-140894900D02*
X136768200Y-141226100D01*
G75*
G02*
X136626600Y-141367700I-141600J0D01*
G01*
X136343400Y-141367700D01*
G75*
G02*
X136201800Y-141226100I0J141600D01*
G01*
X136201800Y-140894900D01*
G75*
G02*
X136343400Y-140753300I141600J0D01*
G01*
X136626600Y-140753300D01*
G75*
G02*
X136768200Y-140894900I0J-141600D01*
G01*
G37*
%TD*%
%TO.C,C104*%
G36*
G01*
X132201800Y-134226100D02*
X132201800Y-133894900D01*
G75*
G02*
X132343400Y-133753300I141600J0D01*
G01*
X132626600Y-133753300D01*
G75*
G02*
X132768200Y-133894900I0J-141600D01*
G01*
X132768200Y-134226100D01*
G75*
G02*
X132626600Y-134367700I-141600J0D01*
G01*
X132343400Y-134367700D01*
G75*
G02*
X132201800Y-134226100I0J141600D01*
G01*
G37*
G36*
G01*
X131231800Y-134226100D02*
X131231800Y-133894900D01*
G75*
G02*
X131373400Y-133753300I141600J0D01*
G01*
X131656600Y-133753300D01*
G75*
G02*
X131798200Y-133894900I0J-141600D01*
G01*
X131798200Y-134226100D01*
G75*
G02*
X131656600Y-134367700I-141600J0D01*
G01*
X131373400Y-134367700D01*
G75*
G02*
X131231800Y-134226100I0J141600D01*
G01*
G37*
%TD*%
%TO.C,C103*%
G36*
G01*
X143798200Y-140894900D02*
X143798200Y-141226100D01*
G75*
G02*
X143656600Y-141367700I-141600J0D01*
G01*
X143373400Y-141367700D01*
G75*
G02*
X143231800Y-141226100I0J141600D01*
G01*
X143231800Y-140894900D01*
G75*
G02*
X143373400Y-140753300I141600J0D01*
G01*
X143656600Y-140753300D01*
G75*
G02*
X143798200Y-140894900I0J-141600D01*
G01*
G37*
G36*
G01*
X144768200Y-140894900D02*
X144768200Y-141226100D01*
G75*
G02*
X144626600Y-141367700I-141600J0D01*
G01*
X144343400Y-141367700D01*
G75*
G02*
X144201800Y-141226100I0J141600D01*
G01*
X144201800Y-140894900D01*
G75*
G02*
X144343400Y-140753300I141600J0D01*
G01*
X144626600Y-140753300D01*
G75*
G02*
X144768200Y-140894900I0J-141600D01*
G01*
G37*
%TD*%
%TO.C,C102*%
G36*
G01*
X137201800Y-132226100D02*
X137201800Y-131894900D01*
G75*
G02*
X137343400Y-131753300I141600J0D01*
G01*
X137626600Y-131753300D01*
G75*
G02*
X137768200Y-131894900I0J-141600D01*
G01*
X137768200Y-132226100D01*
G75*
G02*
X137626600Y-132367700I-141600J0D01*
G01*
X137343400Y-132367700D01*
G75*
G02*
X137201800Y-132226100I0J141600D01*
G01*
G37*
G36*
G01*
X136231800Y-132226100D02*
X136231800Y-131894900D01*
G75*
G02*
X136373400Y-131753300I141600J0D01*
G01*
X136656600Y-131753300D01*
G75*
G02*
X136798200Y-131894900I0J-141600D01*
G01*
X136798200Y-132226100D01*
G75*
G02*
X136656600Y-132367700I-141600J0D01*
G01*
X136373400Y-132367700D01*
G75*
G02*
X136231800Y-132226100I0J141600D01*
G01*
G37*
%TD*%
%TO.C,C101*%
G36*
G01*
X141201800Y-141226100D02*
X141201800Y-140894900D01*
G75*
G02*
X141343400Y-140753300I141600J0D01*
G01*
X141626600Y-140753300D01*
G75*
G02*
X141768200Y-140894900I0J-141600D01*
G01*
X141768200Y-141226100D01*
G75*
G02*
X141626600Y-141367700I-141600J0D01*
G01*
X141343400Y-141367700D01*
G75*
G02*
X141201800Y-141226100I0J141600D01*
G01*
G37*
G36*
G01*
X140231800Y-141226100D02*
X140231800Y-140894900D01*
G75*
G02*
X140373400Y-140753300I141600J0D01*
G01*
X140656600Y-140753300D01*
G75*
G02*
X140798200Y-140894900I0J-141600D01*
G01*
X140798200Y-141226100D01*
G75*
G02*
X140656600Y-141367700I-141600J0D01*
G01*
X140373400Y-141367700D01*
G75*
G02*
X140231800Y-141226100I0J141600D01*
G01*
G37*
%TD*%
%TO.C,C100*%
G36*
G01*
X132201800Y-138226100D02*
X132201800Y-137894900D01*
G75*
G02*
X132343400Y-137753300I141600J0D01*
G01*
X132626600Y-137753300D01*
G75*
G02*
X132768200Y-137894900I0J-141600D01*
G01*
X132768200Y-138226100D01*
G75*
G02*
X132626600Y-138367700I-141600J0D01*
G01*
X132343400Y-138367700D01*
G75*
G02*
X132201800Y-138226100I0J141600D01*
G01*
G37*
G36*
G01*
X131231800Y-138226100D02*
X131231800Y-137894900D01*
G75*
G02*
X131373400Y-137753300I141600J0D01*
G01*
X131656600Y-137753300D01*
G75*
G02*
X131798200Y-137894900I0J-141600D01*
G01*
X131798200Y-138226100D01*
G75*
G02*
X131656600Y-138367700I-141600J0D01*
G01*
X131373400Y-138367700D01*
G75*
G02*
X131231800Y-138226100I0J141600D01*
G01*
G37*
%TD*%
%TO.C,C99*%
G36*
G01*
X143798200Y-139894900D02*
X143798200Y-140226100D01*
G75*
G02*
X143656600Y-140367700I-141600J0D01*
G01*
X143373400Y-140367700D01*
G75*
G02*
X143231800Y-140226100I0J141600D01*
G01*
X143231800Y-139894900D01*
G75*
G02*
X143373400Y-139753300I141600J0D01*
G01*
X143656600Y-139753300D01*
G75*
G02*
X143798200Y-139894900I0J-141600D01*
G01*
G37*
G36*
G01*
X144768200Y-139894900D02*
X144768200Y-140226100D01*
G75*
G02*
X144626600Y-140367700I-141600J0D01*
G01*
X144343400Y-140367700D01*
G75*
G02*
X144201800Y-140226100I0J141600D01*
G01*
X144201800Y-139894900D01*
G75*
G02*
X144343400Y-139753300I141600J0D01*
G01*
X144626600Y-139753300D01*
G75*
G02*
X144768200Y-139894900I0J-141600D01*
G01*
G37*
%TD*%
%TO.C,C98*%
G36*
G01*
X137201800Y-138226100D02*
X137201800Y-137894900D01*
G75*
G02*
X137343400Y-137753300I141600J0D01*
G01*
X137626600Y-137753300D01*
G75*
G02*
X137768200Y-137894900I0J-141600D01*
G01*
X137768200Y-138226100D01*
G75*
G02*
X137626600Y-138367700I-141600J0D01*
G01*
X137343400Y-138367700D01*
G75*
G02*
X137201800Y-138226100I0J141600D01*
G01*
G37*
G36*
G01*
X136231800Y-138226100D02*
X136231800Y-137894900D01*
G75*
G02*
X136373400Y-137753300I141600J0D01*
G01*
X136656600Y-137753300D01*
G75*
G02*
X136798200Y-137894900I0J-141600D01*
G01*
X136798200Y-138226100D01*
G75*
G02*
X136656600Y-138367700I-141600J0D01*
G01*
X136373400Y-138367700D01*
G75*
G02*
X136231800Y-138226100I0J141600D01*
G01*
G37*
%TD*%
%TO.C,C97*%
G36*
G01*
X135798200Y-139894900D02*
X135798200Y-140226100D01*
G75*
G02*
X135656600Y-140367700I-141600J0D01*
G01*
X135373400Y-140367700D01*
G75*
G02*
X135231800Y-140226100I0J141600D01*
G01*
X135231800Y-139894900D01*
G75*
G02*
X135373400Y-139753300I141600J0D01*
G01*
X135656600Y-139753300D01*
G75*
G02*
X135798200Y-139894900I0J-141600D01*
G01*
G37*
G36*
G01*
X136768200Y-139894900D02*
X136768200Y-140226100D01*
G75*
G02*
X136626600Y-140367700I-141600J0D01*
G01*
X136343400Y-140367700D01*
G75*
G02*
X136201800Y-140226100I0J141600D01*
G01*
X136201800Y-139894900D01*
G75*
G02*
X136343400Y-139753300I141600J0D01*
G01*
X136626600Y-139753300D01*
G75*
G02*
X136768200Y-139894900I0J-141600D01*
G01*
G37*
%TD*%
%TO.C,C96*%
G36*
G01*
X132201800Y-140226100D02*
X132201800Y-139894900D01*
G75*
G02*
X132343400Y-139753300I141600J0D01*
G01*
X132626600Y-139753300D01*
G75*
G02*
X132768200Y-139894900I0J-141600D01*
G01*
X132768200Y-140226100D01*
G75*
G02*
X132626600Y-140367700I-141600J0D01*
G01*
X132343400Y-140367700D01*
G75*
G02*
X132201800Y-140226100I0J141600D01*
G01*
G37*
G36*
G01*
X131231800Y-140226100D02*
X131231800Y-139894900D01*
G75*
G02*
X131373400Y-139753300I141600J0D01*
G01*
X131656600Y-139753300D01*
G75*
G02*
X131798200Y-139894900I0J-141600D01*
G01*
X131798200Y-140226100D01*
G75*
G02*
X131656600Y-140367700I-141600J0D01*
G01*
X131373400Y-140367700D01*
G75*
G02*
X131231800Y-140226100I0J141600D01*
G01*
G37*
%TD*%
%TO.C,C95*%
G36*
G01*
X143798200Y-133894900D02*
X143798200Y-134226100D01*
G75*
G02*
X143656600Y-134367700I-141600J0D01*
G01*
X143373400Y-134367700D01*
G75*
G02*
X143231800Y-134226100I0J141600D01*
G01*
X143231800Y-133894900D01*
G75*
G02*
X143373400Y-133753300I141600J0D01*
G01*
X143656600Y-133753300D01*
G75*
G02*
X143798200Y-133894900I0J-141600D01*
G01*
G37*
G36*
G01*
X144768200Y-133894900D02*
X144768200Y-134226100D01*
G75*
G02*
X144626600Y-134367700I-141600J0D01*
G01*
X144343400Y-134367700D01*
G75*
G02*
X144201800Y-134226100I0J141600D01*
G01*
X144201800Y-133894900D01*
G75*
G02*
X144343400Y-133753300I141600J0D01*
G01*
X144626600Y-133753300D01*
G75*
G02*
X144768200Y-133894900I0J-141600D01*
G01*
G37*
%TD*%
%TO.C,C93*%
G36*
G01*
X139798200Y-133894900D02*
X139798200Y-134226100D01*
G75*
G02*
X139656600Y-134367700I-141600J0D01*
G01*
X139373400Y-134367700D01*
G75*
G02*
X139231800Y-134226100I0J141600D01*
G01*
X139231800Y-133894900D01*
G75*
G02*
X139373400Y-133753300I141600J0D01*
G01*
X139656600Y-133753300D01*
G75*
G02*
X139798200Y-133894900I0J-141600D01*
G01*
G37*
G36*
G01*
X140768200Y-133894900D02*
X140768200Y-134226100D01*
G75*
G02*
X140626600Y-134367700I-141600J0D01*
G01*
X140343400Y-134367700D01*
G75*
G02*
X140201800Y-134226100I0J141600D01*
G01*
X140201800Y-133894900D01*
G75*
G02*
X140343400Y-133753300I141600J0D01*
G01*
X140626600Y-133753300D01*
G75*
G02*
X140768200Y-133894900I0J-141600D01*
G01*
G37*
%TD*%
%TO.C,C92*%
G36*
G01*
X141201800Y-140226100D02*
X141201800Y-139894900D01*
G75*
G02*
X141343400Y-139753300I141600J0D01*
G01*
X141626600Y-139753300D01*
G75*
G02*
X141768200Y-139894900I0J-141600D01*
G01*
X141768200Y-140226100D01*
G75*
G02*
X141626600Y-140367700I-141600J0D01*
G01*
X141343400Y-140367700D01*
G75*
G02*
X141201800Y-140226100I0J141600D01*
G01*
G37*
G36*
G01*
X140231800Y-140226100D02*
X140231800Y-139894900D01*
G75*
G02*
X140373400Y-139753300I141600J0D01*
G01*
X140656600Y-139753300D01*
G75*
G02*
X140798200Y-139894900I0J-141600D01*
G01*
X140798200Y-140226100D01*
G75*
G02*
X140656600Y-140367700I-141600J0D01*
G01*
X140373400Y-140367700D01*
G75*
G02*
X140231800Y-140226100I0J141600D01*
G01*
G37*
%TD*%
%TO.C,C91*%
G36*
G01*
X132201800Y-141226100D02*
X132201800Y-140894900D01*
G75*
G02*
X132343400Y-140753300I141600J0D01*
G01*
X132626600Y-140753300D01*
G75*
G02*
X132768200Y-140894900I0J-141600D01*
G01*
X132768200Y-141226100D01*
G75*
G02*
X132626600Y-141367700I-141600J0D01*
G01*
X132343400Y-141367700D01*
G75*
G02*
X132201800Y-141226100I0J141600D01*
G01*
G37*
G36*
G01*
X131231800Y-141226100D02*
X131231800Y-140894900D01*
G75*
G02*
X131373400Y-140753300I141600J0D01*
G01*
X131656600Y-140753300D01*
G75*
G02*
X131798200Y-140894900I0J-141600D01*
G01*
X131798200Y-141226100D01*
G75*
G02*
X131656600Y-141367700I-141600J0D01*
G01*
X131373400Y-141367700D01*
G75*
G02*
X131231800Y-141226100I0J141600D01*
G01*
G37*
%TD*%
%TO.C,C90*%
G36*
G01*
X143798200Y-137894900D02*
X143798200Y-138226100D01*
G75*
G02*
X143656600Y-138367700I-141600J0D01*
G01*
X143373400Y-138367700D01*
G75*
G02*
X143231800Y-138226100I0J141600D01*
G01*
X143231800Y-137894900D01*
G75*
G02*
X143373400Y-137753300I141600J0D01*
G01*
X143656600Y-137753300D01*
G75*
G02*
X143798200Y-137894900I0J-141600D01*
G01*
G37*
G36*
G01*
X144768200Y-137894900D02*
X144768200Y-138226100D01*
G75*
G02*
X144626600Y-138367700I-141600J0D01*
G01*
X144343400Y-138367700D01*
G75*
G02*
X144201800Y-138226100I0J141600D01*
G01*
X144201800Y-137894900D01*
G75*
G02*
X144343400Y-137753300I141600J0D01*
G01*
X144626600Y-137753300D01*
G75*
G02*
X144768200Y-137894900I0J-141600D01*
G01*
G37*
%TD*%
%TO.C,C89*%
G36*
G01*
X136201800Y-139226100D02*
X136201800Y-138894900D01*
G75*
G02*
X136343400Y-138753300I141600J0D01*
G01*
X136626600Y-138753300D01*
G75*
G02*
X136768200Y-138894900I0J-141600D01*
G01*
X136768200Y-139226100D01*
G75*
G02*
X136626600Y-139367700I-141600J0D01*
G01*
X136343400Y-139367700D01*
G75*
G02*
X136201800Y-139226100I0J141600D01*
G01*
G37*
G36*
G01*
X135231800Y-139226100D02*
X135231800Y-138894900D01*
G75*
G02*
X135373400Y-138753300I141600J0D01*
G01*
X135656600Y-138753300D01*
G75*
G02*
X135798200Y-138894900I0J-141600D01*
G01*
X135798200Y-139226100D01*
G75*
G02*
X135656600Y-139367700I-141600J0D01*
G01*
X135373400Y-139367700D01*
G75*
G02*
X135231800Y-139226100I0J141600D01*
G01*
G37*
%TD*%
%TO.C,C88*%
G36*
G01*
X140201800Y-136226100D02*
X140201800Y-135894900D01*
G75*
G02*
X140343400Y-135753300I141600J0D01*
G01*
X140626600Y-135753300D01*
G75*
G02*
X140768200Y-135894900I0J-141600D01*
G01*
X140768200Y-136226100D01*
G75*
G02*
X140626600Y-136367700I-141600J0D01*
G01*
X140343400Y-136367700D01*
G75*
G02*
X140201800Y-136226100I0J141600D01*
G01*
G37*
G36*
G01*
X139231800Y-136226100D02*
X139231800Y-135894900D01*
G75*
G02*
X139373400Y-135753300I141600J0D01*
G01*
X139656600Y-135753300D01*
G75*
G02*
X139798200Y-135894900I0J-141600D01*
G01*
X139798200Y-136226100D01*
G75*
G02*
X139656600Y-136367700I-141600J0D01*
G01*
X139373400Y-136367700D01*
G75*
G02*
X139231800Y-136226100I0J141600D01*
G01*
G37*
%TD*%
%TO.C,C87*%
G36*
G01*
X135798200Y-141894900D02*
X135798200Y-142226100D01*
G75*
G02*
X135656600Y-142367700I-141600J0D01*
G01*
X135373400Y-142367700D01*
G75*
G02*
X135231800Y-142226100I0J141600D01*
G01*
X135231800Y-141894900D01*
G75*
G02*
X135373400Y-141753300I141600J0D01*
G01*
X135656600Y-141753300D01*
G75*
G02*
X135798200Y-141894900I0J-141600D01*
G01*
G37*
G36*
G01*
X136768200Y-141894900D02*
X136768200Y-142226100D01*
G75*
G02*
X136626600Y-142367700I-141600J0D01*
G01*
X136343400Y-142367700D01*
G75*
G02*
X136201800Y-142226100I0J141600D01*
G01*
X136201800Y-141894900D01*
G75*
G02*
X136343400Y-141753300I141600J0D01*
G01*
X136626600Y-141753300D01*
G75*
G02*
X136768200Y-141894900I0J-141600D01*
G01*
G37*
%TD*%
%TO.C,C86*%
G36*
G01*
X132201800Y-139226100D02*
X132201800Y-138894900D01*
G75*
G02*
X132343400Y-138753300I141600J0D01*
G01*
X132626600Y-138753300D01*
G75*
G02*
X132768200Y-138894900I0J-141600D01*
G01*
X132768200Y-139226100D01*
G75*
G02*
X132626600Y-139367700I-141600J0D01*
G01*
X132343400Y-139367700D01*
G75*
G02*
X132201800Y-139226100I0J141600D01*
G01*
G37*
G36*
G01*
X131231800Y-139226100D02*
X131231800Y-138894900D01*
G75*
G02*
X131373400Y-138753300I141600J0D01*
G01*
X131656600Y-138753300D01*
G75*
G02*
X131798200Y-138894900I0J-141600D01*
G01*
X131798200Y-139226100D01*
G75*
G02*
X131656600Y-139367700I-141600J0D01*
G01*
X131373400Y-139367700D01*
G75*
G02*
X131231800Y-139226100I0J141600D01*
G01*
G37*
%TD*%
%TO.C,C85*%
G36*
G01*
X143798200Y-138894900D02*
X143798200Y-139226100D01*
G75*
G02*
X143656600Y-139367700I-141600J0D01*
G01*
X143373400Y-139367700D01*
G75*
G02*
X143231800Y-139226100I0J141600D01*
G01*
X143231800Y-138894900D01*
G75*
G02*
X143373400Y-138753300I141600J0D01*
G01*
X143656600Y-138753300D01*
G75*
G02*
X143798200Y-138894900I0J-141600D01*
G01*
G37*
G36*
G01*
X144768200Y-138894900D02*
X144768200Y-139226100D01*
G75*
G02*
X144626600Y-139367700I-141600J0D01*
G01*
X144343400Y-139367700D01*
G75*
G02*
X144201800Y-139226100I0J141600D01*
G01*
X144201800Y-138894900D01*
G75*
G02*
X144343400Y-138753300I141600J0D01*
G01*
X144626600Y-138753300D01*
G75*
G02*
X144768200Y-138894900I0J-141600D01*
G01*
G37*
%TD*%
%TO.C,C83*%
G36*
G01*
X135201800Y-136226100D02*
X135201800Y-135894900D01*
G75*
G02*
X135343400Y-135753300I141600J0D01*
G01*
X135626600Y-135753300D01*
G75*
G02*
X135768200Y-135894900I0J-141600D01*
G01*
X135768200Y-136226100D01*
G75*
G02*
X135626600Y-136367700I-141600J0D01*
G01*
X135343400Y-136367700D01*
G75*
G02*
X135201800Y-136226100I0J141600D01*
G01*
G37*
G36*
G01*
X134231800Y-136226100D02*
X134231800Y-135894900D01*
G75*
G02*
X134373400Y-135753300I141600J0D01*
G01*
X134656600Y-135753300D01*
G75*
G02*
X134798200Y-135894900I0J-141600D01*
G01*
X134798200Y-136226100D01*
G75*
G02*
X134656600Y-136367700I-141600J0D01*
G01*
X134373400Y-136367700D01*
G75*
G02*
X134231800Y-136226100I0J141600D01*
G01*
G37*
%TD*%
%TO.C,C82*%
G36*
G01*
X139798200Y-131894900D02*
X139798200Y-132226100D01*
G75*
G02*
X139656600Y-132367700I-141600J0D01*
G01*
X139373400Y-132367700D01*
G75*
G02*
X139231800Y-132226100I0J141600D01*
G01*
X139231800Y-131894900D01*
G75*
G02*
X139373400Y-131753300I141600J0D01*
G01*
X139656600Y-131753300D01*
G75*
G02*
X139798200Y-131894900I0J-141600D01*
G01*
G37*
G36*
G01*
X140768200Y-131894900D02*
X140768200Y-132226100D01*
G75*
G02*
X140626600Y-132367700I-141600J0D01*
G01*
X140343400Y-132367700D01*
G75*
G02*
X140201800Y-132226100I0J141600D01*
G01*
X140201800Y-131894900D01*
G75*
G02*
X140343400Y-131753300I141600J0D01*
G01*
X140626600Y-131753300D01*
G75*
G02*
X140768200Y-131894900I0J-141600D01*
G01*
G37*
%TD*%
%TO.C,C81*%
G36*
G01*
X141201800Y-142226100D02*
X141201800Y-141894900D01*
G75*
G02*
X141343400Y-141753300I141600J0D01*
G01*
X141626600Y-141753300D01*
G75*
G02*
X141768200Y-141894900I0J-141600D01*
G01*
X141768200Y-142226100D01*
G75*
G02*
X141626600Y-142367700I-141600J0D01*
G01*
X141343400Y-142367700D01*
G75*
G02*
X141201800Y-142226100I0J141600D01*
G01*
G37*
G36*
G01*
X140231800Y-142226100D02*
X140231800Y-141894900D01*
G75*
G02*
X140373400Y-141753300I141600J0D01*
G01*
X140656600Y-141753300D01*
G75*
G02*
X140798200Y-141894900I0J-141600D01*
G01*
X140798200Y-142226100D01*
G75*
G02*
X140656600Y-142367700I-141600J0D01*
G01*
X140373400Y-142367700D01*
G75*
G02*
X140231800Y-142226100I0J141600D01*
G01*
G37*
%TD*%
%TO.C,C80*%
G36*
G01*
X132201800Y-135226100D02*
X132201800Y-134894900D01*
G75*
G02*
X132343400Y-134753300I141600J0D01*
G01*
X132626600Y-134753300D01*
G75*
G02*
X132768200Y-134894900I0J-141600D01*
G01*
X132768200Y-135226100D01*
G75*
G02*
X132626600Y-135367700I-141600J0D01*
G01*
X132343400Y-135367700D01*
G75*
G02*
X132201800Y-135226100I0J141600D01*
G01*
G37*
G36*
G01*
X131231800Y-135226100D02*
X131231800Y-134894900D01*
G75*
G02*
X131373400Y-134753300I141600J0D01*
G01*
X131656600Y-134753300D01*
G75*
G02*
X131798200Y-134894900I0J-141600D01*
G01*
X131798200Y-135226100D01*
G75*
G02*
X131656600Y-135367700I-141600J0D01*
G01*
X131373400Y-135367700D01*
G75*
G02*
X131231800Y-135226100I0J141600D01*
G01*
G37*
%TD*%
%TO.C,C79*%
G36*
G01*
X143798200Y-134894900D02*
X143798200Y-135226100D01*
G75*
G02*
X143656600Y-135367700I-141600J0D01*
G01*
X143373400Y-135367700D01*
G75*
G02*
X143231800Y-135226100I0J141600D01*
G01*
X143231800Y-134894900D01*
G75*
G02*
X143373400Y-134753300I141600J0D01*
G01*
X143656600Y-134753300D01*
G75*
G02*
X143798200Y-134894900I0J-141600D01*
G01*
G37*
G36*
G01*
X144768200Y-134894900D02*
X144768200Y-135226100D01*
G75*
G02*
X144626600Y-135367700I-141600J0D01*
G01*
X144343400Y-135367700D01*
G75*
G02*
X144201800Y-135226100I0J141600D01*
G01*
X144201800Y-134894900D01*
G75*
G02*
X144343400Y-134753300I141600J0D01*
G01*
X144626600Y-134753300D01*
G75*
G02*
X144768200Y-134894900I0J-141600D01*
G01*
G37*
%TD*%
%TO.C,C77*%
G36*
G01*
X135201800Y-138226100D02*
X135201800Y-137894900D01*
G75*
G02*
X135343400Y-137753300I141600J0D01*
G01*
X135626600Y-137753300D01*
G75*
G02*
X135768200Y-137894900I0J-141600D01*
G01*
X135768200Y-138226100D01*
G75*
G02*
X135626600Y-138367700I-141600J0D01*
G01*
X135343400Y-138367700D01*
G75*
G02*
X135201800Y-138226100I0J141600D01*
G01*
G37*
G36*
G01*
X134231800Y-138226100D02*
X134231800Y-137894900D01*
G75*
G02*
X134373400Y-137753300I141600J0D01*
G01*
X134656600Y-137753300D01*
G75*
G02*
X134798200Y-137894900I0J-141600D01*
G01*
X134798200Y-138226100D01*
G75*
G02*
X134656600Y-138367700I-141600J0D01*
G01*
X134373400Y-138367700D01*
G75*
G02*
X134231800Y-138226100I0J141600D01*
G01*
G37*
%TD*%
%TO.C,C76*%
G36*
G01*
X139798200Y-137894900D02*
X139798200Y-138226100D01*
G75*
G02*
X139656600Y-138367700I-141600J0D01*
G01*
X139373400Y-138367700D01*
G75*
G02*
X139231800Y-138226100I0J141600D01*
G01*
X139231800Y-137894900D01*
G75*
G02*
X139373400Y-137753300I141600J0D01*
G01*
X139656600Y-137753300D01*
G75*
G02*
X139798200Y-137894900I0J-141600D01*
G01*
G37*
G36*
G01*
X140768200Y-137894900D02*
X140768200Y-138226100D01*
G75*
G02*
X140626600Y-138367700I-141600J0D01*
G01*
X140343400Y-138367700D01*
G75*
G02*
X140201800Y-138226100I0J141600D01*
G01*
X140201800Y-137894900D01*
G75*
G02*
X140343400Y-137753300I141600J0D01*
G01*
X140626600Y-137753300D01*
G75*
G02*
X140768200Y-137894900I0J-141600D01*
G01*
G37*
%TD*%
%TO.C,C75*%
G36*
G01*
X141201800Y-143226100D02*
X141201800Y-142894900D01*
G75*
G02*
X141343400Y-142753300I141600J0D01*
G01*
X141626600Y-142753300D01*
G75*
G02*
X141768200Y-142894900I0J-141600D01*
G01*
X141768200Y-143226100D01*
G75*
G02*
X141626600Y-143367700I-141600J0D01*
G01*
X141343400Y-143367700D01*
G75*
G02*
X141201800Y-143226100I0J141600D01*
G01*
G37*
G36*
G01*
X140231800Y-143226100D02*
X140231800Y-142894900D01*
G75*
G02*
X140373400Y-142753300I141600J0D01*
G01*
X140656600Y-142753300D01*
G75*
G02*
X140798200Y-142894900I0J-141600D01*
G01*
X140798200Y-143226100D01*
G75*
G02*
X140656600Y-143367700I-141600J0D01*
G01*
X140373400Y-143367700D01*
G75*
G02*
X140231800Y-143226100I0J141600D01*
G01*
G37*
%TD*%
%TO.C,C74*%
G36*
G01*
X132201800Y-142226100D02*
X132201800Y-141894900D01*
G75*
G02*
X132343400Y-141753300I141600J0D01*
G01*
X132626600Y-141753300D01*
G75*
G02*
X132768200Y-141894900I0J-141600D01*
G01*
X132768200Y-142226100D01*
G75*
G02*
X132626600Y-142367700I-141600J0D01*
G01*
X132343400Y-142367700D01*
G75*
G02*
X132201800Y-142226100I0J141600D01*
G01*
G37*
G36*
G01*
X131231800Y-142226100D02*
X131231800Y-141894900D01*
G75*
G02*
X131373400Y-141753300I141600J0D01*
G01*
X131656600Y-141753300D01*
G75*
G02*
X131798200Y-141894900I0J-141600D01*
G01*
X131798200Y-142226100D01*
G75*
G02*
X131656600Y-142367700I-141600J0D01*
G01*
X131373400Y-142367700D01*
G75*
G02*
X131231800Y-142226100I0J141600D01*
G01*
G37*
%TD*%
%TO.C,C73*%
G36*
G01*
X143798200Y-141894900D02*
X143798200Y-142226100D01*
G75*
G02*
X143656600Y-142367700I-141600J0D01*
G01*
X143373400Y-142367700D01*
G75*
G02*
X143231800Y-142226100I0J141600D01*
G01*
X143231800Y-141894900D01*
G75*
G02*
X143373400Y-141753300I141600J0D01*
G01*
X143656600Y-141753300D01*
G75*
G02*
X143798200Y-141894900I0J-141600D01*
G01*
G37*
G36*
G01*
X144768200Y-141894900D02*
X144768200Y-142226100D01*
G75*
G02*
X144626600Y-142367700I-141600J0D01*
G01*
X144343400Y-142367700D01*
G75*
G02*
X144201800Y-142226100I0J141600D01*
G01*
X144201800Y-141894900D01*
G75*
G02*
X144343400Y-141753300I141600J0D01*
G01*
X144626600Y-141753300D01*
G75*
G02*
X144768200Y-141894900I0J-141600D01*
G01*
G37*
%TD*%
%TO.C,C72*%
G36*
G01*
X104201800Y-138726100D02*
X104201800Y-138394900D01*
G75*
G02*
X104343400Y-138253300I141600J0D01*
G01*
X104626600Y-138253300D01*
G75*
G02*
X104768200Y-138394900I0J-141600D01*
G01*
X104768200Y-138726100D01*
G75*
G02*
X104626600Y-138867700I-141600J0D01*
G01*
X104343400Y-138867700D01*
G75*
G02*
X104201800Y-138726100I0J141600D01*
G01*
G37*
G36*
G01*
X103231800Y-138726100D02*
X103231800Y-138394900D01*
G75*
G02*
X103373400Y-138253300I141600J0D01*
G01*
X103656600Y-138253300D01*
G75*
G02*
X103798200Y-138394900I0J-141600D01*
G01*
X103798200Y-138726100D01*
G75*
G02*
X103656600Y-138867700I-141600J0D01*
G01*
X103373400Y-138867700D01*
G75*
G02*
X103231800Y-138726100I0J141600D01*
G01*
G37*
%TD*%
%TO.C,C71*%
G36*
G01*
X111201800Y-139726100D02*
X111201800Y-139394900D01*
G75*
G02*
X111343400Y-139253300I141600J0D01*
G01*
X111626600Y-139253300D01*
G75*
G02*
X111768200Y-139394900I0J-141600D01*
G01*
X111768200Y-139726100D01*
G75*
G02*
X111626600Y-139867700I-141600J0D01*
G01*
X111343400Y-139867700D01*
G75*
G02*
X111201800Y-139726100I0J141600D01*
G01*
G37*
G36*
G01*
X110231800Y-139726100D02*
X110231800Y-139394900D01*
G75*
G02*
X110373400Y-139253300I141600J0D01*
G01*
X110656600Y-139253300D01*
G75*
G02*
X110798200Y-139394900I0J-141600D01*
G01*
X110798200Y-139726100D01*
G75*
G02*
X110656600Y-139867700I-141600J0D01*
G01*
X110373400Y-139867700D01*
G75*
G02*
X110231800Y-139726100I0J141600D01*
G01*
G37*
%TD*%
%TO.C,C70*%
G36*
G01*
X104201800Y-139726100D02*
X104201800Y-139394900D01*
G75*
G02*
X104343400Y-139253300I141600J0D01*
G01*
X104626600Y-139253300D01*
G75*
G02*
X104768200Y-139394900I0J-141600D01*
G01*
X104768200Y-139726100D01*
G75*
G02*
X104626600Y-139867700I-141600J0D01*
G01*
X104343400Y-139867700D01*
G75*
G02*
X104201800Y-139726100I0J141600D01*
G01*
G37*
G36*
G01*
X103231800Y-139726100D02*
X103231800Y-139394900D01*
G75*
G02*
X103373400Y-139253300I141600J0D01*
G01*
X103656600Y-139253300D01*
G75*
G02*
X103798200Y-139394900I0J-141600D01*
G01*
X103798200Y-139726100D01*
G75*
G02*
X103656600Y-139867700I-141600J0D01*
G01*
X103373400Y-139867700D01*
G75*
G02*
X103231800Y-139726100I0J141600D01*
G01*
G37*
%TD*%
%TO.C,C69*%
G36*
G01*
X111201800Y-134726100D02*
X111201800Y-134394900D01*
G75*
G02*
X111343400Y-134253300I141600J0D01*
G01*
X111626600Y-134253300D01*
G75*
G02*
X111768200Y-134394900I0J-141600D01*
G01*
X111768200Y-134726100D01*
G75*
G02*
X111626600Y-134867700I-141600J0D01*
G01*
X111343400Y-134867700D01*
G75*
G02*
X111201800Y-134726100I0J141600D01*
G01*
G37*
G36*
G01*
X110231800Y-134726100D02*
X110231800Y-134394900D01*
G75*
G02*
X110373400Y-134253300I141600J0D01*
G01*
X110656600Y-134253300D01*
G75*
G02*
X110798200Y-134394900I0J-141600D01*
G01*
X110798200Y-134726100D01*
G75*
G02*
X110656600Y-134867700I-141600J0D01*
G01*
X110373400Y-134867700D01*
G75*
G02*
X110231800Y-134726100I0J141600D01*
G01*
G37*
%TD*%
%TO.C,C68*%
G36*
G01*
X111201800Y-140726100D02*
X111201800Y-140394900D01*
G75*
G02*
X111343400Y-140253300I141600J0D01*
G01*
X111626600Y-140253300D01*
G75*
G02*
X111768200Y-140394900I0J-141600D01*
G01*
X111768200Y-140726100D01*
G75*
G02*
X111626600Y-140867700I-141600J0D01*
G01*
X111343400Y-140867700D01*
G75*
G02*
X111201800Y-140726100I0J141600D01*
G01*
G37*
G36*
G01*
X110231800Y-140726100D02*
X110231800Y-140394900D01*
G75*
G02*
X110373400Y-140253300I141600J0D01*
G01*
X110656600Y-140253300D01*
G75*
G02*
X110798200Y-140394900I0J-141600D01*
G01*
X110798200Y-140726100D01*
G75*
G02*
X110656600Y-140867700I-141600J0D01*
G01*
X110373400Y-140867700D01*
G75*
G02*
X110231800Y-140726100I0J141600D01*
G01*
G37*
%TD*%
%TO.C,C67*%
G36*
G01*
X104201800Y-135726100D02*
X104201800Y-135394900D01*
G75*
G02*
X104343400Y-135253300I141600J0D01*
G01*
X104626600Y-135253300D01*
G75*
G02*
X104768200Y-135394900I0J-141600D01*
G01*
X104768200Y-135726100D01*
G75*
G02*
X104626600Y-135867700I-141600J0D01*
G01*
X104343400Y-135867700D01*
G75*
G02*
X104201800Y-135726100I0J141600D01*
G01*
G37*
G36*
G01*
X103231800Y-135726100D02*
X103231800Y-135394900D01*
G75*
G02*
X103373400Y-135253300I141600J0D01*
G01*
X103656600Y-135253300D01*
G75*
G02*
X103798200Y-135394900I0J-141600D01*
G01*
X103798200Y-135726100D01*
G75*
G02*
X103656600Y-135867700I-141600J0D01*
G01*
X103373400Y-135867700D01*
G75*
G02*
X103231800Y-135726100I0J141600D01*
G01*
G37*
%TD*%
%TO.C,C66*%
G36*
G01*
X111201800Y-135726100D02*
X111201800Y-135394900D01*
G75*
G02*
X111343400Y-135253300I141600J0D01*
G01*
X111626600Y-135253300D01*
G75*
G02*
X111768200Y-135394900I0J-141600D01*
G01*
X111768200Y-135726100D01*
G75*
G02*
X111626600Y-135867700I-141600J0D01*
G01*
X111343400Y-135867700D01*
G75*
G02*
X111201800Y-135726100I0J141600D01*
G01*
G37*
G36*
G01*
X110231800Y-135726100D02*
X110231800Y-135394900D01*
G75*
G02*
X110373400Y-135253300I141600J0D01*
G01*
X110656600Y-135253300D01*
G75*
G02*
X110798200Y-135394900I0J-141600D01*
G01*
X110798200Y-135726100D01*
G75*
G02*
X110656600Y-135867700I-141600J0D01*
G01*
X110373400Y-135867700D01*
G75*
G02*
X110231800Y-135726100I0J141600D01*
G01*
G37*
%TD*%
%TO.C,C62*%
G36*
G01*
X104201800Y-141726100D02*
X104201800Y-141394900D01*
G75*
G02*
X104343400Y-141253300I141600J0D01*
G01*
X104626600Y-141253300D01*
G75*
G02*
X104768200Y-141394900I0J-141600D01*
G01*
X104768200Y-141726100D01*
G75*
G02*
X104626600Y-141867700I-141600J0D01*
G01*
X104343400Y-141867700D01*
G75*
G02*
X104201800Y-141726100I0J141600D01*
G01*
G37*
G36*
G01*
X103231800Y-141726100D02*
X103231800Y-141394900D01*
G75*
G02*
X103373400Y-141253300I141600J0D01*
G01*
X103656600Y-141253300D01*
G75*
G02*
X103798200Y-141394900I0J-141600D01*
G01*
X103798200Y-141726100D01*
G75*
G02*
X103656600Y-141867700I-141600J0D01*
G01*
X103373400Y-141867700D01*
G75*
G02*
X103231800Y-141726100I0J141600D01*
G01*
G37*
%TD*%
M02*
