M48
; DRILL file {KiCad 5.99.0-unknown-4efed4b~101~ubuntu18.04.1} date Thu May 21 03:09:08 2020
; FORMAT={-:-/ absolute / metric / decimal}
; #@! TF.CreationDate,2020-05-21T03:09:08+02:00
; #@! TF.GenerationSoftware,Kicad,Pcbnew,5.99.0-unknown-4efed4b~101~ubuntu18.04.1
; #@! TF.FileFunction,Plated,1,4,PTH
FMAT,2
METRIC
T1C0.100
T2C0.400
T3C0.500
T4C1.000
T5C1.200
T6C3.200
%
G90
G05
T1
X78.5Y-115.0
X78.5Y-116.0
X79.25Y-114.5
X79.25Y-115.5
X79.25Y-116.5
X80.0Y-131.5
X80.0Y-132.5
X80.5Y-117.0
X80.5Y-118.0
X80.5Y-119.0
X80.5Y-120.0
X80.5Y-121.0
X80.5Y-122.0
X80.5Y-123.0
X80.5Y-124.0
X80.5Y-125.0
X80.5Y-126.0
X80.5Y-132.0
X81.0Y-117.5
X81.0Y-118.5
X81.0Y-119.5
X81.0Y-121.5
X81.0Y-123.5
X81.0Y-124.5
X81.0Y-125.5
X81.5Y-117.0
X81.5Y-118.0
X81.5Y-119.0
X81.5Y-120.0
X81.5Y-121.0
X81.5Y-122.0
X81.5Y-123.0
X81.5Y-124.0
X81.5Y-125.0
X81.5Y-126.0
X82.0Y-129.75
X82.5Y-106.5
X82.5Y-107.5
X82.5Y-126.5
X82.5Y-127.5
X82.5Y-128.5
X83.0Y-107.0
X83.0Y-127.0
X83.0Y-128.0
X83.25Y-102.0
X83.25Y-103.0
X83.5Y-106.5
X83.5Y-107.5
X83.5Y-129.75
X84.0Y-102.5
X85.0Y-127.0
X85.0Y-128.0
X86.25Y-130.25
X86.25Y-131.0
X86.25Y-131.75
X87.5Y-98.5
X87.5Y-99.0
X87.5Y-99.5
X87.5Y-100.0
X87.5Y-100.5
X87.5Y-106.5
X87.5Y-107.0
X87.5Y-107.5
X87.5Y-108.0
X87.5Y-108.5
X87.5Y-114.5
X87.5Y-115.0
X87.5Y-115.5
X87.5Y-116.0
X87.5Y-116.5
X87.5Y-122.5
X87.5Y-123.0
X87.5Y-123.5
X87.5Y-124.0
X87.5Y-124.5
X88.0Y-98.5
X88.0Y-99.0
X88.0Y-99.5
X88.0Y-100.0
X88.0Y-100.5
X88.0Y-106.5
X88.0Y-107.0
X88.0Y-107.5
X88.0Y-108.0
X88.0Y-108.5
X88.0Y-114.5
X88.0Y-115.0
X88.0Y-115.5
X88.0Y-116.0
X88.0Y-116.5
X88.0Y-122.5
X88.0Y-123.0
X88.0Y-123.5
X88.0Y-124.0
X88.0Y-124.5
X88.5Y-98.5
X88.5Y-99.0
X88.5Y-99.5
X88.5Y-100.0
X88.5Y-100.5
X88.5Y-106.5
X88.5Y-107.0
X88.5Y-107.5
X88.5Y-108.0
X88.5Y-108.5
X88.5Y-114.5
X88.5Y-115.0
X88.5Y-115.5
X88.5Y-116.0
X88.5Y-116.5
X88.5Y-122.5
X88.5Y-123.0
X88.5Y-123.5
X88.5Y-124.0
X88.5Y-124.5
X90.0Y-128.0
X90.05Y-128.95
X90.25Y-124.75
X90.25Y-125.5
X90.25Y-126.25
X90.5Y-97.0
X90.5Y-105.0
X90.5Y-113.0
X90.5Y-121.0
X90.5Y-128.0
X90.5Y-128.95
X90.95Y-128.95
X91.0Y-96.5
X91.0Y-104.5
X91.0Y-112.5
X91.0Y-120.5
X91.0Y-126.25
X91.0Y-128.0
X91.5Y-97.0
X91.5Y-105.0
X91.5Y-113.0
X91.5Y-121.0
X92.0Y-96.5
X92.0Y-104.5
X92.0Y-112.5
X92.0Y-120.5
X92.5Y-97.0
X92.5Y-105.0
X92.5Y-113.0
X92.5Y-121.0
X94.0Y-127.0
X94.0Y-128.0
X94.0Y-129.0
X94.0Y-130.0
X94.0Y-131.0
X94.0Y-132.0
X94.0Y-133.0
X94.0Y-134.0
X94.0Y-135.0
X94.0Y-136.0
X94.0Y-137.0
X94.0Y-138.0
X94.0Y-139.0
X94.0Y-140.0
X94.0Y-141.0
X94.0Y-142.0
X94.0Y-143.0
X94.0Y-144.0
X94.0Y-145.0
X94.0Y-146.0
X94.0Y-147.0
X94.0Y-148.0
X95.0Y-99.5
X95.0Y-100.5
X95.0Y-107.5
X95.0Y-108.5
X95.0Y-115.5
X95.0Y-116.5
X95.0Y-123.5
X95.0Y-124.5
X95.5Y-100.0
X95.5Y-108.0
X95.5Y-116.0
X95.5Y-124.0
X96.0Y-99.5
X96.0Y-100.5
X96.0Y-107.5
X96.0Y-108.5
X96.0Y-115.5
X96.0Y-116.5
X96.0Y-123.5
X96.0Y-124.5
X96.5Y-137.75
X96.5Y-138.25
X97.0Y-128.25
X97.0Y-128.75
X97.5Y-134.0
X97.5Y-134.5
X97.5Y-135.0
X97.5Y-135.5
X97.5Y-136.0
X99.5Y-134.5
X99.5Y-135.0
X99.5Y-135.5
X100.0Y-121.25
X100.0Y-134.5
X100.0Y-135.0
X100.0Y-135.5
X100.5Y-121.25
X100.5Y-134.5
X100.5Y-135.0
X100.5Y-135.5
X100.75Y-142.0
X101.25Y-142.0
X102.0Y-105.575
X102.0Y-107.525
X102.0Y-108.175
X102.0Y-111.425
X102.0Y-112.725
X102.025Y-106.225
X102.25Y-142.0
X102.5Y-105.575
X102.5Y-107.525
X102.5Y-108.175
X102.5Y-111.425
X102.5Y-112.725
X102.5Y-134.0
X102.5Y-134.5
X102.5Y-135.0
X102.5Y-135.5
X102.5Y-136.0
X102.75Y-142.0
X104.0Y-141.75
X104.0Y-142.25
X105.25Y-110.75
X105.25Y-111.5
X105.25Y-133.0
X105.25Y-134.0
X105.25Y-135.0
X105.25Y-136.0
X105.4Y-112.075
X105.5Y-106.5
X105.5Y-107.5
X105.5Y-108.5
X105.75Y-133.5
X105.75Y-134.5
X105.75Y-135.5
X106.0Y-106.0
X106.0Y-107.0
X106.0Y-108.0
X106.0Y-109.0
X106.25Y-131.5
X106.5Y-128.5
X106.5Y-129.25
X106.5Y-130.0
X106.75Y-131.5
X107.5Y-115.5
X107.5Y-116.5
X107.5Y-117.5
X107.5Y-118.5
X107.5Y-119.5
X107.5Y-120.5
X107.5Y-121.5
X107.5Y-122.5
X107.5Y-123.5
X107.5Y-124.5
X107.5Y-125.5
X107.5Y-126.5
X107.5Y-127.5
X107.5Y-128.5
X107.5Y-129.5
X107.5Y-130.5
X107.5Y-131.5
X107.5Y-132.5
X107.5Y-133.5
X107.5Y-134.5
X107.5Y-135.5
X107.5Y-136.5
X107.5Y-137.5
X107.5Y-138.5
X107.5Y-139.5
X107.5Y-140.5
X108.0Y-115.0
X108.0Y-116.0
X108.0Y-117.0
X108.0Y-118.0
X108.0Y-119.0
X108.0Y-120.0
X108.0Y-121.0
X108.0Y-122.0
X108.0Y-123.0
X108.0Y-124.0
X108.0Y-125.0
X108.0Y-126.0
X108.0Y-127.0
X108.0Y-128.0
X108.0Y-129.0
X108.0Y-130.0
X108.0Y-131.0
X108.0Y-132.0
X108.0Y-133.0
X108.0Y-134.0
X108.0Y-135.0
X108.0Y-136.0
X108.0Y-137.0
X108.0Y-138.0
X108.0Y-139.0
X108.0Y-140.0
X108.0Y-141.0
X108.0Y-142.0
X108.0Y-143.0
X108.0Y-144.0
X108.0Y-145.0
X108.0Y-146.0
X108.0Y-147.0
X108.0Y-148.0
X108.5Y-113.0
X109.0Y-108.0
X109.0Y-113.5
X109.0Y-115.25
X109.225Y-106.875
X109.225Y-112.075
X109.5Y-107.5
X109.5Y-108.5
X109.5Y-113.0
X109.5Y-114.0
X109.725Y-106.875
X109.725Y-112.075
X109.75Y-129.5
X110.25Y-129.25
X110.25Y-139.5
X111.25Y-122.0
X111.25Y-123.0
X111.5Y-113.25
X111.5Y-116.0
X111.5Y-121.0
X112.0Y-113.25
X112.25Y-117.5
X112.25Y-118.5
X112.25Y-119.5
X112.25Y-124.0
X112.25Y-124.75
X112.5Y-106.75
X112.5Y-107.25
X112.5Y-107.75
X112.5Y-112.25
X112.5Y-112.75
X112.5Y-113.25
X112.533Y-141.467
X113.0Y-107.5
X113.0Y-141.5
X113.0Y-142.5
X113.25Y-127.25
X113.25Y-127.75
X113.75Y-127.25
X114.0Y-142.5
X115.5Y-121.75
X115.75Y-133.5
X115.75Y-134.5
X115.75Y-138.5
X115.75Y-139.0
X115.75Y-139.5
X115.75Y-140.5
X115.75Y-141.0
X115.75Y-141.5
X116.0Y-121.75
X116.0Y-126.0
X116.0Y-126.5
X116.0Y-129.25
X116.0Y-134.0
X116.0Y-135.0
X116.5Y-121.75
X116.5Y-129.25
X117.0Y-114.5
X117.0Y-129.25
X117.5Y-138.0
X117.5Y-141.75
X118.0Y-118.25
X118.0Y-119.0
X118.0Y-119.75
X118.0Y-120.5
X118.0Y-124.0
X118.0Y-125.0
X118.0Y-141.75
X118.5Y-124.5
X118.5Y-141.75
X118.75Y-118.25
X118.75Y-119.0
X118.75Y-119.75
X118.75Y-120.5
X119.0Y-114.5
X119.0Y-115.5
X119.0Y-124.0
X119.0Y-125.0
X119.0Y-141.75
X119.5Y-115.0
X119.5Y-118.25
X119.5Y-119.0
X119.5Y-119.75
X119.5Y-120.5
X120.0Y-114.5
X120.0Y-115.5
X121.75Y-116.0
X122.287Y-115.212
X122.787Y-115.212
X123.5Y-93.5
X123.5Y-94.5
X124.0Y-93.0
X124.0Y-94.0
X125.0Y-118.5
X125.0Y-119.5
X125.5Y-119.0
X127.0Y-129.0
X127.0Y-141.75
X127.5Y-126.0
X127.5Y-126.5
X127.5Y-129.0
X127.5Y-141.75
X128.0Y-96.25
X128.0Y-129.0
X128.0Y-141.75
X128.0Y-144.5
X128.0Y-145.0
X128.25Y-131.5
X128.25Y-132.0
X128.25Y-132.5
X128.25Y-135.0
X128.25Y-136.5
X128.25Y-137.0
X128.25Y-137.5
X128.5Y-124.5
X128.5Y-125.5
X128.5Y-126.5
X129.0Y-125.0
X129.0Y-126.0
X130.0Y-92.25
X130.5Y-105.0
X130.5Y-109.0
X130.5Y-114.0
X130.5Y-118.0
X131.0Y-131.5
X131.0Y-136.5
X131.0Y-138.0
X131.0Y-139.0
X131.5Y-131.5
X131.5Y-136.5
X131.5Y-139.0
X131.699Y-95.449
X132.0Y-105.5
X132.0Y-108.5
X132.0Y-112.5
X132.0Y-116.5
X132.175Y-126.0
X132.175Y-126.5
X132.175Y-125.5
X133.0Y-95.25
X133.0Y-105.5
X133.0Y-112.5
X133.0Y-117.5
X133.75Y-125.25
X134.0Y-106.5
X134.0Y-107.5
X134.0Y-112.5
X134.0Y-115.5
X134.0Y-116.5
X134.0Y-118.5
X134.0Y-124.0
X134.5Y-119.0
X134.5Y-123.5
X134.5Y-124.5
X134.5Y-129.0
X135.0Y-107.5
X135.0Y-108.5
X135.0Y-109.5
X135.0Y-110.5
X135.0Y-112.5
X135.0Y-113.5
X135.0Y-114.5
X135.0Y-115.5
X135.0Y-116.5
X135.0Y-117.5
X135.0Y-124.0
X135.0Y-125.0
X135.5Y-123.5
X135.5Y-124.5
X135.5Y-136.5
X136.0Y-105.5
X136.0Y-106.5
X136.0Y-107.5
X136.0Y-108.5
X136.0Y-109.5
X136.0Y-110.5
X136.0Y-112.5
X136.0Y-113.5
X136.0Y-114.5
X136.0Y-115.5
X136.0Y-116.5
X136.0Y-117.5
X136.0Y-124.0
X136.0Y-125.0
X136.0Y-136.0
X136.0Y-137.0
X136.5Y-119.0
X136.5Y-132.0
X136.5Y-136.5
X137.0Y-105.5
X137.0Y-106.5
X137.0Y-107.5
X137.0Y-108.5
X137.0Y-109.5
X137.0Y-114.5
X137.0Y-115.5
X137.0Y-116.5
X137.0Y-129.0
X137.0Y-131.5
X137.0Y-132.5
X137.0Y-136.0
X137.0Y-137.0
X137.5Y-94.75
X137.5Y-119.5
X137.5Y-136.5
X138.0Y-119.0
X138.0Y-131.5
X138.0Y-132.5
X138.0Y-139.0
X138.5Y-132.0
X138.75Y-140.25
X139.0Y-105.5
X139.0Y-106.5
X139.0Y-107.5
X139.0Y-108.5
X139.0Y-109.5
X139.0Y-114.5
X139.0Y-115.5
X139.0Y-116.5
X139.0Y-117.5
X139.5Y-119.5
X139.75Y-141.0
X140.0Y-105.5
X140.0Y-106.5
X140.0Y-107.5
X140.0Y-108.5
X140.0Y-109.5
X140.0Y-110.5
X140.0Y-112.5
X140.0Y-113.5
X140.0Y-114.5
X140.0Y-115.5
X140.0Y-116.5
X140.0Y-119.0
X141.0Y-105.5
X141.0Y-108.5
X141.0Y-109.5
X141.0Y-110.5
X141.0Y-112.5
X141.0Y-113.5
X141.0Y-114.5
X141.0Y-115.5
X141.0Y-116.5
X141.0Y-119.0
X141.5Y-126.5
X141.5Y-131.75
X141.5Y-132.25
X142.0Y-103.0
X142.0Y-106.5
X142.0Y-107.5
X142.0Y-109.5
X142.0Y-110.5
X142.0Y-113.5
X142.0Y-114.5
X142.0Y-115.5
X142.0Y-116.5
X142.0Y-117.5
X142.0Y-126.0
X142.0Y-131.75
X142.5Y-126.5
X143.0Y-105.5
X143.0Y-110.5
X143.0Y-112.5
X143.0Y-113.5
X143.0Y-114.5
X143.0Y-115.5
X143.0Y-116.5
X143.0Y-119.0
X143.0Y-126.0
X143.0Y-137.5
X143.25Y-141.5
X143.25Y-142.0
X143.5Y-126.5
X143.75Y-137.5
X144.0Y-105.5
X144.0Y-108.5
X144.0Y-112.5
X144.0Y-116.5
X144.5Y-141.0
X144.5Y-142.0
X145.0Y-141.5
X145.495Y-114.547
X145.5Y-105.0
X145.5Y-106.5
X145.5Y-107.5
X145.5Y-109.0
X145.5Y-110.5
X145.5Y-115.5
X145.5Y-118.0
X145.75Y-114.0
X146.0Y-131.75
X146.0Y-134.0
X146.0Y-134.5
X146.25Y-141.5
X146.25Y-142.0
X147.5Y-130.0
X148.0Y-130.25
X148.0Y-130.75
X148.0Y-131.5
X148.75Y-133.0
X148.75Y-137.0
X150.5Y-130.25
X150.5Y-130.75
X151.0Y-130.75
X151.0Y-132.25
X151.0Y-132.75
X151.0Y-133.25
X153.25Y-132.25
X153.25Y-132.75
X153.25Y-133.25
X156.25Y-131.75
X156.25Y-132.25
X156.25Y-132.75
X156.75Y-141.75
X156.75Y-142.25
X158.5Y-134.25
X158.5Y-134.75
X158.55Y-132.7
X159.2Y-133.5
X159.2Y-134.0
X159.2Y-134.5
X159.25Y-139.0
X161.5Y-129.75
X161.5Y-130.5
X162.0Y-131.5
X162.0Y-140.0
X162.0Y-141.0
X162.0Y-142.0
X162.0Y-145.5
X162.0Y-146.5
X162.0Y-147.5
X162.4Y-104.4
X162.5Y-102.0
X162.5Y-132.5
X162.5Y-140.5
X162.5Y-141.5
X162.5Y-146.0
X162.5Y-147.0
X163.0Y-102.5
X163.0Y-145.5
X163.0Y-146.5
X163.0Y-147.5
X163.2Y-104.4
X163.2Y-118.5
X163.5Y-102.0
X163.5Y-103.0
X164.0Y-102.5
X164.0Y-103.5
X164.0Y-104.4
X164.0Y-118.5
X164.5Y-102.0
X164.5Y-103.0
X164.8Y-104.4
X164.8Y-118.5
X165.0Y-102.5
X165.0Y-103.5
X165.5Y-101.75
X165.5Y-121.5
X165.6Y-104.4
X165.6Y-104.8
X165.6Y-118.15
X165.6Y-118.65
X165.6Y-119.15
X166.0Y-101.75
X166.4Y-104.0
X166.4Y-104.5
X166.4Y-116.0
X166.4Y-118.1
X166.4Y-118.5
X166.5Y-101.75
X166.5Y-121.5
X167.0Y-101.75
X167.0Y-120.0
X167.0Y-121.0
X167.0Y-145.5
X167.0Y-146.5
X167.0Y-147.5
X167.2Y-104.4
X167.2Y-118.5
X167.5Y-101.75
X167.5Y-120.5
X167.5Y-121.5
X167.5Y-140.0
X167.5Y-141.0
X167.5Y-142.0
X167.5Y-146.0
X167.5Y-147.0
X168.0Y-104.4
X168.0Y-118.5
X168.0Y-120.0
X168.0Y-121.0
X168.0Y-140.5
X168.0Y-141.5
X168.0Y-145.5
X168.0Y-146.5
X168.0Y-147.5
X168.5Y-120.5
X168.5Y-121.5
X168.8Y-104.4
X168.8Y-118.5
X169.0Y-120.0
X169.0Y-121.0
X169.5Y-120.5
X169.5Y-121.5
X169.6Y-104.4
X169.6Y-118.5
X170.4Y-118.5
X171.0Y-121.5
X171.0Y-123.5
X171.0Y-125.5
X171.0Y-127.5
X171.0Y-131.0
X171.0Y-133.0
X171.0Y-135.0
X171.0Y-137.0
X171.2Y-118.5
T2
X71.0Y-95.0
X71.0Y-97.0
X71.0Y-99.0
X71.0Y-101.0
X71.0Y-103.0
X71.0Y-105.0
X71.0Y-107.0
X71.0Y-109.0
X71.0Y-111.0
X71.0Y-113.0
X71.0Y-115.0
X71.0Y-117.0
X71.0Y-119.0
X71.0Y-121.0
X71.0Y-123.0
X71.0Y-125.0
X71.0Y-127.0
X71.0Y-129.0
X71.0Y-131.0
X71.0Y-133.0
X71.0Y-135.0
X71.0Y-137.0
X71.0Y-139.0
X71.0Y-141.0
X71.0Y-143.0
X71.0Y-145.0
X71.31Y-93.48
X71.31Y-146.54
X72.175Y-92.175
X72.175Y-147.825
X73.46Y-91.31
X73.48Y-148.69
X73.5Y-101.75
X73.5Y-102.75
X73.5Y-103.75
X74.0Y-104.75
X75.0Y-91.0
X75.0Y-104.75
X75.0Y-149.0
X76.0Y-104.75
X77.0Y-91.0
X77.0Y-101.75
X77.0Y-102.75
X77.0Y-103.75
X77.0Y-104.75
X77.0Y-149.0
X78.0Y-101.75
X78.0Y-102.75
X78.0Y-103.75
X78.0Y-104.75
X79.0Y-91.0
X79.0Y-101.75
X79.0Y-102.75
X79.0Y-103.75
X79.0Y-104.75
X79.0Y-149.0
X81.0Y-91.0
X81.0Y-149.0
X82.5Y-133.5
X83.0Y-91.0
X83.0Y-149.0
X83.5Y-133.5
X84.5Y-133.5
X85.0Y-91.0
X85.0Y-149.0
X85.5Y-97.25
X85.5Y-98.25
X85.5Y-99.25
X85.5Y-105.25
X85.5Y-106.25
X85.5Y-107.25
X85.5Y-113.25
X85.5Y-114.25
X85.5Y-115.25
X85.5Y-121.25
X85.5Y-122.25
X85.5Y-123.25
X87.0Y-91.0
X87.0Y-149.0
X89.0Y-91.0
X89.0Y-95.25
X89.0Y-96.25
X89.0Y-97.25
X89.0Y-103.25
X89.0Y-104.25
X89.0Y-105.25
X89.0Y-111.25
X89.0Y-112.25
X89.0Y-113.25
X89.0Y-119.25
X89.0Y-120.25
X89.0Y-121.25
X89.0Y-149.0
X90.0Y-95.25
X90.0Y-96.25
X90.0Y-103.25
X90.0Y-104.25
X90.0Y-111.25
X90.0Y-112.25
X90.0Y-119.25
X90.0Y-120.25
X91.0Y-91.0
X91.0Y-149.0
X93.0Y-91.0
X93.0Y-149.0
X95.0Y-91.0
X95.0Y-149.0
X95.5Y-96.0
X95.5Y-97.0
X95.5Y-98.0
X95.5Y-104.0
X95.5Y-105.0
X95.5Y-106.0
X95.5Y-112.0
X95.5Y-113.0
X95.5Y-114.0
X95.5Y-120.0
X95.5Y-121.0
X95.5Y-122.0
X96.5Y-96.0
X96.5Y-97.0
X96.5Y-98.0
X96.5Y-104.0
X96.5Y-105.0
X96.5Y-106.0
X96.5Y-112.0
X96.5Y-113.0
X96.5Y-114.0
X96.5Y-120.0
X96.5Y-121.0
X96.5Y-122.0
X97.0Y-91.0
X97.0Y-149.0
X97.5Y-96.0
X97.5Y-97.0
X97.5Y-98.0
X97.5Y-104.0
X97.5Y-105.0
X97.5Y-106.0
X97.5Y-112.0
X97.5Y-113.0
X97.5Y-114.0
X97.5Y-120.0
X97.5Y-121.0
X97.5Y-122.0
X99.0Y-91.0
X99.0Y-129.5
X101.0Y-91.0
X101.0Y-129.5
X103.0Y-91.0
X103.0Y-149.0
X105.0Y-91.0
X105.0Y-149.0
X107.0Y-91.0
X107.0Y-149.0
X109.0Y-91.0
X109.0Y-149.0
X111.0Y-91.0
X111.0Y-149.0
X113.0Y-91.0
X113.0Y-149.0
X115.0Y-91.0
X115.0Y-149.0
X117.0Y-91.0
X117.0Y-149.0
X119.0Y-91.0
X119.0Y-149.0
X121.0Y-91.0
X121.0Y-149.0
X123.0Y-91.0
X123.0Y-149.0
X125.0Y-91.0
X125.0Y-149.0
X127.0Y-91.0
X127.0Y-149.0
X129.0Y-91.0
X129.0Y-149.0
X131.0Y-91.0
X131.0Y-149.0
X133.0Y-91.0
X133.0Y-149.0
X135.0Y-91.0
X135.0Y-149.0
X137.0Y-91.0
X137.0Y-149.0
X139.0Y-91.0
X139.0Y-149.0
X141.0Y-91.0
X141.0Y-149.0
X143.0Y-91.0
X143.0Y-149.0
X145.0Y-91.0
X145.0Y-149.0
X147.0Y-91.0
X147.0Y-149.0
X149.0Y-91.0
X149.0Y-149.0
X151.0Y-91.0
X151.0Y-149.0
X153.0Y-91.0
X153.0Y-149.0
X155.0Y-91.0
X155.0Y-149.0
X157.0Y-91.0
X157.0Y-149.0
X159.0Y-91.0
X159.0Y-149.0
X161.0Y-91.0
X161.0Y-149.0
X163.0Y-91.0
X163.0Y-149.0
X165.0Y-91.0
X165.0Y-149.0
X167.0Y-91.0
X167.0Y-149.0
X169.0Y-91.0
X169.0Y-149.0
X171.0Y-91.0
X171.0Y-149.0
X173.0Y-91.0
X173.0Y-149.0
X175.0Y-91.0
X175.0Y-149.0
X176.52Y-91.31
X176.54Y-148.69
X177.825Y-92.175
X177.825Y-147.825
X178.69Y-93.46
X178.69Y-146.52
X179.0Y-95.0
X179.0Y-97.0
X179.0Y-99.0
X179.0Y-101.0
X179.0Y-103.0
X179.0Y-105.0
X179.0Y-107.0
X179.0Y-109.0
X179.0Y-111.0
X179.0Y-113.0
X179.0Y-115.0
X179.0Y-117.0
X179.0Y-119.0
X179.0Y-121.0
X179.0Y-123.0
X179.0Y-125.0
X179.0Y-127.0
X179.0Y-129.0
X179.0Y-131.0
X179.0Y-133.0
X179.0Y-135.0
X179.0Y-137.0
X179.0Y-139.0
X179.0Y-141.0
X179.0Y-143.0
X179.0Y-145.0
T3
X72.6Y-95.0
X73.303Y-93.303
X73.303Y-96.697
X75.0Y-92.6
X75.0Y-97.4
X76.697Y-93.303
X76.697Y-96.697
X77.4Y-95.0
X172.6Y-145.0
X173.303Y-143.303
X173.303Y-146.697
X175.0Y-142.6
X175.0Y-147.4
X176.697Y-143.303
X176.697Y-146.697
X177.4Y-145.0
X72.6Y-145.0
X73.303Y-143.303
X73.303Y-146.697
X75.0Y-142.6
X75.0Y-147.4
X76.697Y-143.303
X76.697Y-146.697
X77.4Y-145.0
X172.6Y-95.0
X173.303Y-93.303
X173.303Y-96.697
X175.0Y-92.6
X175.0Y-97.4
X176.697Y-93.303
X176.697Y-96.697
X177.4Y-95.0
T4
X132.38Y-144.46
X132.38Y-147.0
X134.92Y-144.46
X134.92Y-147.0
X137.46Y-144.46
X137.46Y-147.0
X140.0Y-144.46
X140.0Y-147.0
X101.0Y-92.96
X101.0Y-95.5
X103.54Y-92.96
X103.54Y-95.5
X106.08Y-92.96
X106.08Y-95.5
X108.62Y-92.96
X108.62Y-95.5
X135.8Y-93.0
X138.34Y-93.0
X140.88Y-93.0
X143.42Y-93.0
X145.96Y-93.0
X148.5Y-93.0
X144.25Y-144.46
X144.25Y-147.0
X114.0Y-92.96
X114.0Y-95.5
X116.54Y-92.96
X116.54Y-95.5
X119.08Y-92.96
X119.08Y-95.5
X121.62Y-92.96
X121.62Y-95.5
X109.5Y-147.0
X112.04Y-147.0
X114.58Y-147.0
X117.12Y-147.0
X119.66Y-147.0
X122.2Y-147.0
T5
X82.5Y-141.5
X86.0Y-141.5
T6
X75.0Y-145.0
X175.0Y-95.0
X75.0Y-95.0
X175.0Y-145.0
T0
M30
